<?xml version="1.0" encoding="utf-8"?>
<!-- Generator: Adobe Illustrator 27.1.1, SVG Export Plug-In . SVG Version: 6.00 Build 0)  -->
<svg version="1.1" id="Capa_1" xmlns="http://www.w3.org/2000/svg" xmlns:xlink="http://www.w3.org/1999/xlink" x="0px" y="0px"
	 viewBox="0 0 595.3 841.9" style="enable-background:new 0 0 595.3 841.9;" xml:space="preserve">
<style type="text/css">
	.st0{fill:#95FF8F;}
</style>
<g>
	<path class="st0" d="M148.1,201.2c0.1,0.2,0.4,0.5,0.4,0.7c0.1,4.1,0,8.3,0.1,12.4c0.1,3.2,0.5,6.4,0.8,9.5c0.3,4.3,0.4,8.7,0.8,13
		c0.6,6.5,1.3,13,2,19.5c0.6,5.8,1.3,11.6,2.1,17.4c0.5,3.4,1.4,6.7,2,10c1.4,7.5,2.6,15.1,4.1,22.6c1.3,6.3,2.9,12.6,4.4,18.8
		c1.4,5.7,3,11.4,4.2,17.1c1.1,4.8,1.7,9.8,2.7,14.6c1.1,5.4,2.5,10.7,3.6,16.1c0.7,3.3,1.2,6.6,2,9.8c1.6,6.5,3.2,13,4.8,19.5
		c0.7,2.9,1,5.8,1.8,8.6c1.4,5.4,3.2,10.7,4.6,16c0.7,2.6,0.8,5.4,1.4,8.1c0.8,3.5,1.8,7,2.6,10.5c1.4,6.5,2.5,13.1,4.1,19.6
		c1.3,5.4,3,10.7,4.5,16c1.2,4.2,2.4,8.3,3.6,12.5c0.9,3.1,1.9,6.2,2.8,9.4c2.1,7.2,4,14.5,6.1,21.7c1.4,4.9,2.6,10,4.7,14.7
		c3,6.8,4.6,14,6.9,20.9c2.4,7.4,3.9,15,5.9,22.5c1.4,5.1,2.9,10.1,4.4,15.2c1,3.1,1.9,6.3,3.2,9.2c3.4,7.6,4.3,15.9,6.9,23.8
		c1.9,5.7,3.6,11.5,5.4,17.3c0.9,2.9,1.6,5.8,2.4,8.7c0.2,0.6,0.6,1.2,0.9,1.8c1.7,4.5,3.4,9,5.1,13.5c1.1,3,2.3,5.9,3.5,8.9
		c1.6,4.1,3.3,8.2,4.8,12.4c1.8,5.2,3.2,10.5,5.1,15.7c1.3,3.6,3.2,6.9,4.5,10.5c1.6,4.7,3,9.5,4.1,14.4c1.4,6.7,2.3,13.5,3.6,20.2
		c1.5,8.1,2.8,16.3,4.9,24.3c1.3,5.2,3.5,10.5,7.8,14c3.1,2.5,6.3,5,10.3,6.7c8.6,3.7,16.6,1.6,24.4-1.7c6.4-2.7,12.5-6.1,18.3-9.8
		c3.9-2.5,7.4-5.7,10.8-8.9c4.3-4,8.6-8.2,12.4-12.7c4.3-5.2,8.2-10.7,11.9-16.3c3.4-5.2,6.2-10.7,9.3-16.1
		c3.8-6.7,6.8-13.7,8.9-21.2c1.1-3.8,2.3-7.7,3.2-11.5c1.6-7.3,2.8-14.7,4.4-22c1.4-6.2,1-12.4,0.5-18.6c-0.1-1.7,0.7-2.5,1.7-3.3
		c5.8-5,11.7-10.1,17.5-15.1c0.8-0.7,1.3-1.7,2-2.7c4.7,3.8,9.9,6.2,15.7,6.9c3.3,0.4,6.9,1.2,10-0.7c2.5-1.5,4.9-3.3,7.2-5.1
		c1.6-1.3,3-2.8,4.6-4.3c-0.6,0.2-1.2,0.3-1.7,0.7c-1.6,1.2-3.1,2.5-4.5,3.6c0.4-3.2,1.1-6.4,1.2-9.7c0.1-2.7-0.2-5.4-0.8-8
		c-0.8-3.5-1.5-7.2-3.2-10.2c-2.2-3.9-5.3-7.5-8.3-10.8c-4.2-4.7-9.6-7.6-15.7-8.9c-1.3-0.3-2.6-0.6-3.9-0.7c-1.8,0-3.6,0.2-6,0.4
		c2.6-1.8,4.7-3.2,6.8-4.6c5.3-3.6,10.7-7,15.9-10.8c3.8-2.7,8-3.2,12.3-3.3c2.1,0,4.3,0.5,6.4,1c3.9,0.9,6.3,3.9,9,6.5
		c8.7,8.3,12.8,18.5,12.1,30.5c-0.1,2.3-0.6,5-1.9,6.7c-2.6,3.4-5.8,6.3-8.9,9.2c-2.5,2.4-5.3,4.5-8,6.8c-0.4,0.4-0.5,1.2-0.8,1.7
		c1.5-1.1,3.2-2,4.5-3.3c4.4-4.2,8.6-8.6,13-12.8c3.5-3.3,3.1-7.7,3.6-11.9c0.1-1,0.3-2,0.4-3c0-0.1,0-0.3,0-0.4
		c-0.2-0.9-0.3-1.8-0.5-2.6c-1.8-8.4-5.9-15.6-11.8-21.5c-2.9-2.9-6.5-5.4-10.3-7.2c-2.5-1.2-5.7-1.3-8.8-0.6
		c-2,0.5-4.2,0.2-6.2,1.3c-3.1,1.7-6.4,2.9-9.4,4.8c-5.3,3.4-10.4,7.2-15.5,10.9c-3.1,2.3-6.2,4.6-9,7.2c-2.2,2.1-3.2,5.1-3.3,8.2
		c-0.1,3.5-0.4,7.2,0.3,10.6c0.6,3.2,2.2,6.1,3.5,9.2c-2.8,1.9-6.1,1.7-9.4,1.3c-1.3-0.2-1.9-0.9-1.8-2.4c0.1-1.6-0.2-3.2-0.4-4.8
		c-0.4-4.3-0.9-8.6-2.4-12.7c-1.7-4.5-3-9.2-4.3-13.9c-0.6-2-0.8-4.2-1.3-6.3c-0.7-2.7-1.7-5.3-2.4-8.1c-0.5-2-0.6-4.1-1.1-6.1
		c-0.6-2.7-1.3-5.3-1.9-8c-0.1-0.7,0-1.4,0.1-2c0-0.2,0.3-0.5,0.2-0.7c-1.1-5-2.4-10-3.4-15.1c-0.3-1.7,0-3.5-0.3-5.2
		c-0.8-4.8-1.7-9.6-2.6-14.4c-0.4-2.4-0.8-4.7-1.3-7.1c-0.7-3.4-1.6-6.7-2.3-10.1c-1-5.2-1.7-10.4-2.6-15.5
		c-0.4-2.4-0.9-4.9-1.4-7.3c-0.6-3.5-1.6-7-1.6-10.6c-0.1-4.7-1.7-9.1-2.3-13.8c-0.9-7-2.4-13.9-3.6-20.9c-1-5.5-2-10.9-3.3-16.3
		c-1.5-6.4-3.4-12.6-5.1-19c-0.3-1-0.5-2-0.5-3c0.1-4.8-1.8-9-3.1-13.4c-2-6.7-3.9-13.4-5.6-20.2c-0.8-3.2-1-6.6-1.6-9.8
		c-0.1-0.7-1-1.2-1.1-1.9c-1-5.3-1.9-10.7-3-16c-0.6-3-1.8-5.8-2.4-8.7c-1-4.8-1.6-9.6-2.5-14.4c-1.1-5.7-2.4-11.4-3.6-17.1
		c-1.1-5.6-2.2-11.3-3.4-16.9c-1.2-6.1-2.4-12.2-3.6-18.3c-0.4-1.7-1.1-3.3-1.5-5c-0.4-1.5-0.5-3.1-0.9-4.7
		c-1.2-5.7-2.5-11.3-3.6-16.9c-0.1-0.6,0.1-1.4,0.4-1.9c2.3-3.5,6.1-5.1,8.8-7.3c2.7,2.5,5.2,5.1,8,7.3c4,3.1,8.5,4.9,13.6,5.1
		c6.3,0.1,11.9-1.7,17.3-5.1c5.5-3.4,11.2-6.4,16.7-9.7c2.5-1.4,4.7-3.2,7.3-4.4c3.6-1.6,5-4.8,6.6-7.8c2.9-5.4,2.5-11.2,1.5-17
		c-0.7-4.1-1.7-8.2-3.3-12c-1.2-2.9-3.4-5.6-5.5-8.1c-2.5-2.8-5.3-5.4-8.1-7.9c-1.2-1.1-2.8-1.9-4.2-2.6c-3.2-1.7-6.5-3.4-10.3-3.5
		c-3.6-0.1-6.8,0.9-9.8,2.9l0,0c1.3-0.3,2.6-0.6,3.9-0.8c2.3-0.3,4.5-1.7,7-0.6c1.2,0.6,2.6,0.5,3.9,1c3.7,1.5,7.4,3.1,10.3,6
		c1.5,1.5,3.2,2.9,4.5,4.5c2.5,3.2,5.2,6.3,7,9.8c2.7,5.2,3.9,10.9,3.9,16.8c0,4.6,0.1,9.1-2.9,13c-0.2,0.3-0.2,0.8-0.5,1.1
		c-0.8,1-1.5,2.3-2.6,2.9c-7.5,4.6-15,9.1-22.5,13.6c-2.3,1.4-4.8,2.4-7.7,3.9c2.8-4.3,5.9-7.7,6.3-12.4c-2.1,4.9-4.7,9.4-8.8,12.9
		c-0.5,0.4-1,1-1.5,1.1c-3.1,0.4-6.2,0.8-9.3,1c-4.6,0.2-8.4-2.2-11.8-4.8c-2.5-2-4.5-4.6-7-7.2c4.8-3,9.5-5.8,14.1-8.7
		c0.5,0.4,1,0.9,1.5,1.2c4.7,3.1,7.9,1.5,11-2.3c3.7-4.6,4.9-11.1,1.1-16.8c0,0.3,0,0.5,0.1,0.7c0.7,3.5,1.7,7,0.6,10.7
		c-0.7,2.3-2.3,3.9-3.7,5.7c-2.2,2.7-4.5,3.3-7.3,1.3c-0.4-0.3-0.6-1.8-0.3-2c1.7-1.3,3.5-2.3,5.3-3.5c0.7-0.5,1.6-1,2-1.7
		c2.3-5.1,0-10.6-5.1-12.4c-1.8-0.7-3.9-0.6-5.8-0.9c0.9-2.4,3.7-1.8,6-2.7c-3.2-1.2-6.7,0.4-7.7,3.1c-0.3,0.7-1,1.2-1.6,1.8
		c-0.1-0.1-0.3-0.3-0.4-0.5c2.1-5.5,6.2-7.2,12.4-5.6c-4.2-3.8-11.7-0.1-12.5,3.1c-0.9,3.4-2.9,5-5.9,5.9c-0.4,0.1-0.8,0.5-1.3,0.6
		c-2.2,0.8-4.4,1.7-6.6,2.5c-2-6-0.8-11.4,1.5-16.7c-3.3,5.2-4.8,10.7-2.5,17c-1.9,0.3-3.5,0.5-5,0.8l0,0c-3,1-6.1,2-9.3,3
		c-3-7.4-6-14.6-8.8-21.8c-1.4-3.7-2.4-7.5-3.6-11.3c-3.2-10.1-6.7-20.1-9.7-30.2c-2.8-9.5-7.8-18-11.3-27.2
		c-3.1-7.9-8.1-14.7-12.8-21.7c-3-4.4-5.7-9.1-9.1-13.2c-5-6-9.5-12.5-15.9-17.4c-4.5-3.4-8.4-7.7-12.8-11.3
		c-2.1-1.8-4.6-3.1-7.1-4.5c-3.2-1.8-6.5-3.7-9.9-5.3c-6.6-3.1-13.1-6.2-20.3-7.7c-1.8-0.4-3.6-0.7-5.4-1c-1.6,0-3.2,0-4.9,0
		c-1.1,1.3-2.3,2.5-3.4,3.8c-1.1,1.3-2.4,2.5-3.3,4c-1.6,2.8-2.9,5.8-4.6,8.6c-3.8,6.2-6.7,12.8-9.3,19.4
		c-2.6,6.4-4.7,13.1-6.9,19.6c-2.3,7-4.8,14-6.6,21.2c-1.2,4.5-1.4,9.3-2,13.9c-0.9,6-2,11.9-2.7,17.9c-0.9,7.5-1.6,15-2.1,22.5
		c-0.5,7.3-0.6,14.6-0.8,21.9c0,0.8-0.3,1.7-0.4,2.5C148.1,197.7,148.1,199.4,148.1,201.2z M320.6,247.9c-0.6,0.4-1.8,1-1.8,1.2
		c0.4,1.4,1,2.6,1.8,4.3c-0.6-0.1-1.3-0.1-1.8-0.4c-2-1.4-2.2-3.4-0.8-5.7c-2.6,0.8-1.7,3-2,4.6c1.5,1,2.9,1.9,4.3,2.9
		c-0.9,0.9-1.6,2-3.1,0.9c-0.9-0.7-1.8-1.3-2.7-2c-0.2,0.2-0.3,0.4-0.5,0.7c1,0.8,2,1.6,3,2.4c-0.6,0.3-1.2,0.5-1.8,0.8
		c-0.6,0.4-1,1.3-1.6,1.4c-2.9,0.5-5.1-0.7-6.3-3c-1.6-3.2-1.2-5.7,1-7.9c0.6-0.6,1.1-1.4,1.7-2c1.3-1.5,2.7-2.9,4.2-4.5
		c0.8,1.1,1.4,1.9,1.9,2.7c-0.6,0.4-1.2,0.7-1.9,1.1c0.7,0,1.3,0,1.9,0c-0.2,0.4-0.4,0.6-0.8,1.2c1.2-0.3,1.9-0.6,2.7-0.7
		c0.8-0.1,1.7,0,2.6,0c-0.5-0.5-0.9-1.3-1.4-1.4c-2.3-0.3-2.7-2.6-4.6-3.8c2.5-1.3,4.6-2.6,6.9-3.5c0.9-0.4,2.5-1.2,3.3,0.6
		c0.7,1.7-1,1.8-1.9,2.5c-0.1,0.1-0.3,0.2-0.4,0.2c0.1,0.2,0.1,0.4,0.2,0.6c1-0.3,2.1-0.5,2.8-1.1c0.5-0.4,0.9-1.8,0.6-2.3
		c-0.4-0.8-1.5-1.7-2.3-1.8c-1.4-0.1-2.9,0.2-4.2,0.7c-4.5,1.8-7.9,5-11,8.8c-1.7,2.1-3.6,4.4-5.9,5.6c-5.1,2.6-10.6,4.5-16.2,6.8
		c-2.5-8.1-7.7-13.9-12.6-19.6c3-3.4,5.1-6.7,4.7-11c-0.1-1.2-0.6-2.4-1.2-3.5c-0.8-1.4,0.3-5,2.1-6.2c0.7-0.5,1.6-1.3,2.2-1.2
		c3.7,1,7.4,0.7,11.1,0.5c4.8-0.2,9.6,0.2,14.3-0.4c6.5-0.8,13-2.2,19.4-3.6c4.2-0.9,8.3-2.4,12.5-3.5c5.4-1.4,10.4-3.6,15.2-6.4
		c1-0.6,2.2-1,3.3-0.9c3.5,0.4,7.3,4,7,7.6c-0.1,1.4-0.3,3.5-1.2,4.2c-5.9,4.1-12,7.9-18.1,11.8c-5.3,3.5-11.4,5.8-15.4,11.1
		c-1.3,1.7-2.9,3.1-4.1,4.8c-1.1,1.5-2,3.3-2.9,5c-0.6,1.1-1.1,0.5-1.6,0c-1.1,0.3-2.2,0.6-3.3,0.8
		C318.8,247.5,319.7,247.7,320.6,247.9c0.7,0.4,2,0.7,2,1.2c0.1,0.9-0.5,2-0.9,3.4C320.4,250.8,319.6,249.5,320.6,247.9z
		 M341.2,632.8c0.1,1.3-0.1,2.7,0.4,3.9c0.9,2.6,1.6,5.2,2.3,7.8c1.5,6.3,3.7,12.4,5.5,18.5c-0.4-0.1-1-0.2-1.5-0.2
		c-1.1-2.8-2.3-5.5-3.3-8.2c-1.6-4.2-1.5-8.8-3.2-13.1c-1.4-3.5-1.9-7.3-2.5-11c-0.4-2.5-0.5-5,0.9-7.3c0.1,0.8-0.1,1.6-0.1,2.3
		C339.7,628.1,339.2,630.8,341.2,632.8c0-0.4,0.1-0.9,0-1.4c-0.2-2-1-4.2-0.5-6c0.9-3.3,2.9-6.2,5.9-8.1c0.5-0.3,0.9-0.8,1.2-1.3
		c0.3-0.6,0.2-1.5,0.7-1.9c1-0.9,2.2-1.7,3.3-2.4c2.5-1.7,5-3.3,7.5-5.1c3-2.1,5.9-4.4,8.9-6.4c2.4-1.5,4.1-1.2,5.3,0.6
		c-2,0.4-4.2,0.6-6.1,1.4c-1.4,0.5-2.5,1.8-3.8,2.7c-2.8,1.9-5.6,3.7-8.3,5.6c-2,1.4-3.9,3-5.9,4.5c0.2,0.2,0.3,0.5,0.5,0.7
		c6-4.1,11.9-8.1,17.9-12.2c0.2,6.4,5.7,11.1,11.8,12.8c-5.2,2.9-9.8,6.3-10.1,13c0.7-1.2,0.9-2.6,1.3-3.9c1-2.6,3.3-4.1,5.4-5.7
		c2-1.5,4-2.5,6.5-2.3c0.6,0,1.1,0.7,1.7,1c-0.6,0.4-1.1,1-1.7,1.2c-1.4,0.5-3.1,0.6-4.1,1.5c-1.7,1.4-3.3,3.1-4.6,5
		c-2.8,4.1-4.5,8.6-3,13.7c0.4,1.4,1.5,2.7,1.7,4.1c0.4,2.3,0.4,4.7,0.3,7c0,0.8-0.5,1.9-1.2,2.4c-2.1,1.8-1.9,7,1.6,8.2
		c-0.8,2.4-1.5,4.9-2.4,7.3c-0.9,2.3-2.5,2.6-4.3,1c-0.8-0.7-1.6-1.1-2.4-1.8c-0.6-0.5-1.1-1-1.6-1.6c-0.7-0.9-1.4-1.9-2-2.8
		c-0.2,0.1-0.4,0.3-0.6,0.4c0.7,1,1.3,2,2.2,3.2c-2.9-1.1-5.3-2.6-7.8-2.8c-3.1-0.2-3.9-2.2-4.8-4.3c-1-2.4-1.8-4.9-2.6-7.3
		c-1-3.5-1.9-7-2.9-10.5c-0.2-0.8-0.2-1.6-0.4-2.3C342.8,637.5,342,635.2,341.2,632.8z M246.1,269.2L246.1,269.2c-1-2-1.6-4.4-3-6.1
		c-3.1-3.7-6.3-7.5-10.1-10.4c-3.4-2.6-7.7-3.9-11.6-5.8c-0.3-0.2-0.7-0.1-1.1-0.2c-1.7-0.3-3.3-0.6-5-0.9c-0.8,0.2-1.5,0.5-2.3,0.7
		c-0.4,0.1-1,0-1.3,0.2c-1.9,1.1-4,1.9-5.5,3.4c-1.8,1.7-3.3,3.8-4.5,6c-0.9,1.6-1.1,3.7-1.8,5.5c-1.2,3.3-1.3,6.7-1.4,10.2
		c0,3.7,1.5,7,2.6,10.4c2.4,8.2,7.1,15,13.3,20.6c3.6,3.3,7.8,5.9,12,8.3c2.7,1.6,5.9,2.6,9.2,2.2c4.1-0.5,8.1-1,11.8-3.2
		c5.4-3,11-5.6,16.4-8.6c4-2.3,7.9-4.9,11.9-7.3c0.6-0.4,1.4-0.6,2-0.9c2.1-1,4-2,5.2-4.1c2.3-4.1,3.7-8.5,4.6-13.1
		c0.4-1.9,0.8-3.5,3.1-3.7c0.6-0.1,1.2-0.6,1.8-0.9c0,0.2,0,0.4,0,0.6c1.7,0.1,3.5,0.2,5.2,0.2c2.6,0,5.2-0.5,7.7,0
		c5.3,1.1,9-1.5,12.3-4.9c1.1-1.1,2-2.7,1.1-4.9c-0.6,1.4-0.7,2.5-1.4,3.2c-2.9,3.6-6.2,6.1-11.3,5.4c-2.5-0.3-5.1,0.2-7.6,0.5
		c-2.9,0.3-5.3-1-7.8-2.2c-1.6-0.8-2.7-1.6-2.4-3.5c1.9,1.3,3.9,2.7,5.9,4.1c0.1-0.2,0.3-0.4,0.4-0.6c-1.8-1.3-4-2.4-5.3-4
		c-1.3-1.7-1.8-4.1-2.6-6c5.4-2.1,10.4-4,15.4-5.9c0.7-0.3,1.6-0.3,2.4-0.4c0.4-0.7,0.9-1.6,1.3-2.5c-0.8,3.6,0.8,7.3,3.5,8.9
		c3.6,2.1,6.3,0.3,9.4-2.1c-1.3,3.8-5.6,5.6-9.8,4.6l0-0.1c0.2,1.5,1.2,1.4,2.2,1.2c1.6-0.3,3.2-0.7,5.3-1.2
		c-2.9,2.3-5.7,2.7-8.5,1.9c-4-1.1-5.3-4.6-6.6-8.3c-1.1,2.5,0.2,4.3,1.4,5.8c3.4,4.6,8,4.4,12.9,2.7c-1,2.5-3.4,4.3-5.7,4.2
		c-5.8-0.1-9.6-1.5-11.1-5.2c3.9,3,6.6,3.8,8.5,2.2c-4.6,0.4-7.2-2.6-9.7-5.8c0.1-0.6,0.2-1.5,0.4-2.5c-0.3,0-0.7,0-0.8,0.1
		c-1.5,2.5-0.2,7.1,2.2,9.1c2.2,1.8,4.9,2.4,7.4,3.3c4.3,1.5,8.9-1.5,10-5.4c0.2-0.8,0.7-1.3,1-1.9c0.6-1.4,2.6-1.8,2.4-3.5
		c-0.2-1.9,0.9-3.2,1.9-4.7c0.9-1.4,2-3,2.1-4.6c0.4-3.7,2.7-6.2,4.7-9.1c1.2,3.9,2.6,7.8,3,11.7c0.9,7.8,3,15.2,4.6,22.8
		c1.2,5.9,2.4,11.8,3.7,17.6c1,5,2.3,9.9,3.2,14.9c1.1,5.5,1.9,11.1,2.9,16.6c0.5,2.9,1.5,5.7,2.1,8.6c0.6,2.8,1,5.7,1.6,8.6
		c1.2,5.7,2.4,11.4,3.6,17.1c0.6,2.5,1.4,5,2,7.5c0.6,2.5,0.8,5.2,1.4,7.6c2,7.5,4.3,15,6.3,22.5c1.7,6.4,3,13,4.5,19.4
		c1.8,7.9,3.7,15.8,5.2,23.7c1.7,8.6,3,17.3,4.5,25.9c0.8,4.5,1.7,9,2.4,13.6c0.9,5.4,1.4,10.9,2.4,16.2c1.3,7.1,2.8,14.2,4.2,21.2
		c0.3,1.6,0.9,3.1,1.2,4.7c1.2,7,2.2,14.1,3.3,21.1c0.5,3.2,0.8,6.4,1.4,9.5c0.8,4.9,1.7,9.7,2.7,14.6c0.9,4.5,1.7,9,2.8,13.5
		c0.8,3.5,2,7,3,10.4c2,6.6,4.2,13.2,5.9,19.9c1.1,4.3,1.5,8.8,2.2,13.3c0.1,0.7-0.2,1.5-0.4,2.7c-3.1-1.9-5.9-3.5-8.7-5.2
		c-4.2-2.5-8.6-3.8-13-2.3c-1.6-0.8-3-1.5-4.4-2c-2.7-1-5.5-1.8-6-5.3c-0.1-0.5-0.5-0.9-0.7-1.4c3.1-1.6,3.4-3.2,0.8-5.6
		c-0.3-0.3-0.4-0.8-0.6-1.2c-1-2.4-1.4-5.4-4.1-6.6c-2.8-1.3-5.8-2.6-8.8-3c-3.6-0.5-7.5-0.8-10.9,0c-4,1-7.8,3.2-10.9,6.2
		c-1,1-2.2,1.7-3.2,2.4c-0.9-2.2-1.6-4.3-2.4-6.3c-1-2.7-2.2-5.3-3.1-8c-2.1-6.5-4-13-6-19.5c-1.1-3.6-2.5-7-3.4-10.7
		c-1.8-7.2-3.2-14.4-5.1-21.6c-2-7.5-4.5-15-6.7-22.5c-1-3.4-1.6-6.9-2.5-10.4c-1.1-4.4-2.1-8.8-3.2-13.2c-0.5-1.8-0.4-3.8-2.4-5.1
		c0,0.6-0.1,1.1,0,1.6c1.1,4.8,2.2,9.5,3.4,14.2c1.4,5.6,3,11.2,4.5,16.9c0.8,3,1.3,6,2.1,9c1.4,4.9,2.9,9.7,4.3,14.6
		c2.9,9.7,5.6,19.5,8.5,29.1c1.1,3.8,2.6,7.6,3.8,11.4c0.8,2.5,1.1,5.1,2,7.5c1.4,3.9,3,7.8,4.7,11.7c0.7,1.5,0.2,2.1-1,2.9
		c-1.9,1.1-3.8,2.3-5.4,3.8c-3,2.6-5.8,5.4-8.7,8.1c-2.9,2.7-3.7,6-3,9.7c1.1,5.2,2.4,10.4,3.7,15.6c1.2,4.7,2.4,9.5,3.7,14.2
		c1.4,5.1,2.8,10.1,4.4,15.2c0.4,1.3,0.1,2.1-0.9,2.8c-2.4,1.7-4.9,3.3-7.2,5.1c-5.1,3.9-10.1,7.9-15.1,11.9c-1,0.8-2,2.2-2.1,3.5
		c-0.6,4-1.1,8-1.1,12.1c0,5.3,1.7,10.3,4,15c2,4.1,4.5,8,7.1,11.9c2.5,3.8,5.5,6.9,9.7,8.8c3,1.3,6,2.8,9.2,3.6
		c2.6,0.7,5.5,1,8.1,0.5c3.5-0.6,6.6-2.3,9.2-5c2.9-2.9,6.1-5.4,9.1-8.1c0.9-0.6,2-1.1,2.8-1.9c5-4.8,9.9-9.7,14.8-14.7
		c1.8-1.8,3.7-3.6,4.2-6.4c0.8-4.6,0.4-9.2-0.3-13.8c-0.4-3-1-6.2-2.4-8.9c-2.8-5.1-6.2-9.8-9.4-14.7c2.8-2.4,4.7-6,4.6-10.2
		c-0.1-6.6-0.4-13.2-0.7-19.8c-0.2-5.3,1.8-9.9,4-14.5c0.2-0.4,0.3-0.8,0.5-1.3c-2.9,1.3-4.7,5.7-5.9,15.7
		c-1.8-3.5-0.5-11.3,2.8-15.4c1.7-2.1,3.4-4.4,7-4.9c-1.3,1.4-2.3,2.5-3.2,3.5c1.5-0.7,2.7-1.5,3.9-2.5c6.5-5.4,11.6-3.2,17.4,0.8
		c3.9,2.7,8,4.8,12.7,5.2c4.9,0.3,9.5-1.1,13.4-4.3c3.7-3,7.2-6.3,11.3-8.7c5-2.9,6.2-3.1,9.8,0.5c1.3,1.3,2,5.6,1.2,7.2
		c-0.1,0.3-0.4,0.5-0.6,0.8c-1.2,1.2-2.5,2.3-3.8,3.5c-5.8,5.7-11.6,11.5-17.5,17.1c-3,2.9-6.1,5.6-9.2,8.3
		c-2.1,1.9-4.4,3.7-6.5,5.7c-2.6,2.3-5,4.8-7.6,7c-5.4,4.6-11,9-16.4,13.5c-1.5,1.3-3,2.7-4.6,4c-1,0.8-2.1,1.4-3.1,2.2
		c0.1,0.2,0.2,0.3,0.4,0.5c11.5-6.7,20.2-16.8,31-24.6c0.8,14.9-2.4,29-5.9,43c-3.5,14.3-9.9,27.3-17.1,40
		c-6.8,11.8-23.4,32-27.7,33.5c0.6-3,1.3-5.9,1.6-8.9c0.6-6,1.4-12,1.4-18.1c0-5.3-0.8-10.7-1.3-16c-0.1-1,0.3-2.5-1.5-2.6
		c0.5,3.2,1.2,6.4,1.3,9.6c0.1,5.8,0.1,11.7-0.2,17.5c-0.3,5.4-1,10.9-1.7,16.3c-0.2,1.4-0.5,3.2-1.5,4c-3.1,2.8-6.2,5.5-9.7,7.7
		c-4.6,2.9-9.7,5.2-14.4,7.8c-6,3.3-12.4,4.5-19.1,4.4c-2.1,0-4-0.5-5.3-2.3c-1.7-2.3-3.5-4.5-5.2-6.9c-4.7-6.7-7.8-14.2-9.7-22.1
		c-1-4.1-1.6-8.3-2.5-12.5c-0.4-1.8-0.9-3.5-1.2-5.2c-1.6-7.8-2.9-15.7-4.7-23.5c-0.9-3.8-2.7-7.5-4.1-11.2
		c-1.6-4.2-3.3-8.2-4.9-12.4c-2.4-6.4-4.7-12.8-7.1-19.2c-1.3-3.4-2.7-6.8-4-10.2c-1.1-3.2-2.1-6.5-3.2-9.7
		c-0.8-2.1-1.8-4.2-2.5-6.3c-1.4-4.7-2.7-9.4-4.1-14c-1.1-3.7-2.6-7.3-3.6-11.1c-1.2-4.8-1.9-9.7-3.1-14.4c-0.8-3.4-1.9-6.6-2.9-10
		c-0.2-0.6-0.2-1.2-0.3-1.9c-0.2,0.3-0.3,0.5-0.4,0.8c-1-3.4-2.1-6.7-3-10.1c-0.9-3.3-1.4-6.6-2.3-9.9c-1.5-5.3-3.1-10.6-4.7-15.9
		c-1-3.6-1.7-7.3-2.9-10.8c-2.3-7-5-13.8-7.2-20.8c-2.6-8.2-4.6-16.6-7.1-24.9c-1-3.5-2.4-6.9-3.5-10.5c-0.9-2.8-1.4-5.6-2.2-8.4
		c-1.7-5.7-3.7-11.3-5.4-17c-1.1-3.5-1.8-7.1-2.7-10.7c-1.2-5.1-2.5-10.1-3.6-15.2c-1.1-5.2-1.9-10.5-3.1-15.6
		c-1.4-6.1-3.2-12.1-4.7-18.1c-1.5-6.1-2.9-12.2-4.3-18.3c-1.4-6-3.7-11.7-4.1-18c-0.1-2.3-1-4.4-2.2-6.6c-1.1-1.9,0-4.9-0.5-7.3
		c-1.3-6.2-2.9-12.3-4.3-18.5c-1.7-7.5-3.2-15-4.9-22.5c-1.2-5.2-2.9-10.3-4-15.6c-1.6-8.2-2.8-16.5-4.2-24.7
		c-1.4-8.2-3.2-16.3-4.3-24.5c-1.1-8-1.7-16-2.3-24c-0.4-4.9-0.4-9.8-0.6-14.7c-0.4-7-0.9-13.9-1.2-20.9c-0.2-4.6-0.3-9.2-0.4-13.8
		c0-0.8,0.6-1.5,0.6-2.3c0-3.6-0.2-7.1-0.1-10.7c0.2-6.6,0.6-13.2,1-19.8c0.2-3.6,0.5-7.1,0.9-10.7c0.3-3.4,0.8-6.8,1.1-10.2
		c0.2-1.6,0.3-3.2,0.6-4.8c1.1-5.2,2.3-10.3,3.4-15.4c1.1-4.9,2-9.9,3.5-14.7c3.1-10.2,6.2-20.3,9.9-30.3c2.7-7.4,6.2-14.5,9.5-21.6
		c1-2.2,2.7-4.1,4.1-6.2c1.4,1.8,2.8,3.2,3.8,4.9c3.7,6.8,7.3,13.6,10.8,20.4c1.7,3.3,3.1,6.8,4.5,10.2c1.5,3.7,2.8,7.3,4.1,11.1
		c1.4,4.1,2.7,8.2,4.2,12.3c1.1,2.9,2.4,5.8,3.4,8.7c1.1,3.4,2,6.8,3,10.2c0.2,0.5,0.8,0.9,1.2,1.3l0,0c0-0.6,0.1-1.2-0.1-1.7
		c-1.4-4.1-2.9-8.1-4.3-12.2c-1.1-3.3-2.1-6.6-3.4-9.8c-2.9-7.1-4-14.8-7.7-21.6c-1.6-2.9-2.6-6.1-4-9.1c-1.2-2.5-2.6-4.9-3.9-7.4
		c-2-3.9-3.9-7.8-6.1-11.6c-1.4-2.5-3.1-4.8-4.9-7.5c1.7,0.1,3.1-0.1,4.4,0.2c4.4,1.2,8.8,2.4,13,4c4.6,1.7,9,3.7,13.4,5.8
		c3.8,1.9,7.5,4,11,6.3c7.6,5.1,14.4,11.2,20.8,17.7c4.1,4.2,7.8,8.9,11.5,13.6c2.9,3.8,5.4,7.9,8.1,11.8c3.8,5.4,8,10.5,10.6,16.8
		c3.3,7.8,7.3,15.3,10.6,23.1c2.1,4.9,3.5,10.1,5.1,15.2c2.5,7.7,4.8,15.4,7.3,23c1.6,5,3.4,9.9,5.2,14.9c1,2.7,2.1,5.3,3.2,7.9
		c1.2,2.7,2.3,5.6,3.8,8.1c1.3,2.2,1,3.3-1.5,3.8c-2.1,0.4-4.3,0.6-6.4,0.8c-6,0.6-11.9,1.1-17.9,1.6c1.3-4.2,2.3-7.9,3.6-11.5
		c1.9-5.4,3.1-10.9,2.6-16.6c-0.4-4.1-2.2-7.8-5.6-10.4c-2.2-1.7-4.9-2.9-7.3-4.4c-0.1,0.1-0.3,0.3-0.5,0.5c1,0.8,1.9,2.1,3,2.4
		c2.2,0.5,3.3,1.9,4.9,3.2c4.1,3.6,4.6,8.2,4.7,13.1c0,0.9,0.2,1.9,0,2.7c-0.7,2.5-1.6,5-2.4,7.6c-1.4,4.2-2.7,8.3-4.1,12.7
		c-3.1-0.2-6-0.1-8.8-0.7c-2.3-0.5-3.6,0.1-4.6,1.9c-1.3,2.4-2.8,4.8-3.8,7.4c-0.4,1,0.4,2.5,0.6,3.7c0.8,0.1,1.3,0.1,1.7,0.2
		c1.1,3.3-1.4,5.1-2.8,7.3c-0.9,1.5-1.8,1.6-3,0.3c-0.3-0.3-0.9-0.5-1.1-0.8c-0.2-0.4-0.4-1.1-0.2-1.5c1.2-2.2,0.3-6.7-1.8-8.5
		c1.4,6.9,1.4,7,0.2,8.6c-1.2-0.7-2.3-1.5-3.5-2.2c-3.5-2.1-7.6-2.4-11.5-2.9c-1.4-0.2-2.9-0.4-4.1,0.1c-2.7,1-5.2,2.4-7.8,3.6
		c-1.9,0.8-3.7,1.6-5.6,2.4c-2.3-3.9-3-8-3.5-12.1c-1,4.6,1.1,8.7,3,13c-1.9,0.8-3.8,1.6-5.9,2.5c-0.3-3.5-0.6-6.9-0.8-10.2
		c-0.2,0-0.5,0.1-0.8,0.1c0.3,3.5,0.6,7.1,0.9,10.6c-2.4,1.1-4.6,2.2-6.7,3.2c-2.4,1.2-4.8,2.4-7.2,3.6c0,0,0.1,0.4,0.2,0.7
		c0.4-0.2,0.8-0.5,1.2-0.7c3.8-1.6,7.6-3.2,11.3-4.9c2.7-1.3,5.3-3,8-4.3c4.3-2.1,8.9-3.7,13.1-5.9c2.1-1.1,3.9-0.8,5.9-0.5
		c0.9,0.1,1.7,0.5,2.5,0.5c3.6,0,6.4,1.9,9.3,3.6c4.7,2.8,7.8,7.3,11.1,11.5c3.8,4.8,7.1,9.9,8.1,16.2c0.5,3.3,1.1,6.7,1,10
		c-0.4,6-2.3,11.5-5.4,16.7c-0.6,1.1-1.4,2.2-2.4,2.9c-2.3,1.6-4.8,3-7.2,4.5c-2.9,1.8-5.8,3.5-8.8,5.2c-4.5,2.5-9,4.9-13.5,7.2
		c-0.9,0.4-1.9,0.4-2.9,0.6c-3.9,3.3-8.9,3.3-13.6,3c-3.7-0.3-7.4-1.9-10.6-4.3c-4.5-3.3-8.9-6.8-12.4-11.3
		c-3.5-4.6-6.8-9.2-8.4-14.9c-0.8-2.8-1.8-5.5-2.1-8.3c-0.6-6.1,1.2-11.9,3.5-17.4c1.9-4.7,8.1-7.9,13.1-7.4
		c0.9,0.1,1.7,0.5,2.6,0.8c2.8,0.8,5.7,1.2,8.4,2.3c2.3,0.9,4.2,2.7,6.4,3.7c2.1,0.9,2.8,3.1,4.4,4.5c2.6,2.2,4.1,5.7,6.1,8.5
		C244.7,268.3,245.5,268.7,246.1,269.2z M185.4,47.2c0.2,0.1,0.4,0.2,0.6,0.3c-0.4,1-0.6,2-1.1,2.9c-2.6,5.3-5.5,10.4-7.8,15.8
		c-2.6,6.1-4.8,12.3-7,18.5c-1.7,5-3.4,10-4.5,15.1c-1.9,8.6-5,16.9-5.9,25.8c-0.6,6.1-1.6,12.2-2.3,18.3c-0.2,2,0.2,4.1,0,6.1
		c-0.5,5-1.2,10.1-1.6,15.1c-0.2,2.4,0.4,5-0.1,7.4c-1.3,5.7-0.9,11.4-1.1,17.2c-0.1,4.3,0.2,8.6,0.2,13c0.1,3.8-0.1,7.6,0.1,11.4
		c0.3,5.2,0.9,10.4,1.3,15.6c0.4,5.4,0.8,10.9,1.2,16.3c0.3,4.4,0.5,8.9,0.9,13.3c0.2,3.2,0.3,6.5,0.9,9.6
		c1.6,8.3,3.5,16.5,5.1,24.8c1.7,9,3.3,18.1,5.8,27c1.2,4.3,2.1,8.6,3.1,13c1,4.2,1.8,8.4,2.7,12.5c1.2,5.5,2.6,10.9,3.8,16.4
		c1.3,6.3,2.5,12.7,3.7,19.1c0.4,2.1,0.4,4.2,0.9,6.3c1.1,4.7,2.2,9.3,3.4,14c0.9,3.5,1.8,6.9,2.6,10.4c1.9,7.5,3.7,15,5.6,22.5
		c0.6,2.6,1.6,5.1,2.1,7.7c1.3,6.1,2.3,12.3,3.6,18.4c0.8,3.8,2.5,7.4,3.1,11.2c1.1,7.9,4.3,15.2,6,22.8c1.3,5.4,3.4,10.7,5.1,16
		c1.1,3.4,1.9,6.8,2.9,10.2c0.9,2.9,1.9,5.8,2.8,8.8c2.2,7.3,4.3,14.7,6.6,21.9c2.4,7.4,5,14.8,7.3,22.2c1.4,4.5,2.6,9.1,3.9,13.6
		c0.4,1.5,0.9,2.9,1.2,4.4c1.2,5.1,2.4,10.1,3.7,15.2c1,3.7,2.2,7.2,3.2,10.9c1.2,4.6,2.2,9.3,3.4,14c1.4,5.2,3,10.3,4.5,15.4
		c0.8,2.8,1.3,5.8,2.3,8.5c3.4,9.5,6.9,18.9,10.5,28.3c2.3,6.1,4.8,12.2,7.2,18.2c2.2,5.6,4.6,11.2,6.8,16.9
		c0.5,1.4,0.3,3.1,0.7,4.5c1.5,5.7,3.5,11.3,4.8,17.1c1.5,6.9,2.8,13.9,3.7,21c0.8,5.9,2.2,11.5,4.6,16.9c1.5,3.5,3.5,6.8,5.5,10
		c2,3.1,4.2,5.9,6.4,8.9c-2.7-1.4-5.3-3.1-7.7-5c-1.5-1.1-2.9-2.5-3.9-4c-3.5-5.7-5.8-11.8-7-18.4c-0.9-4.9-1.6-9.9-2.5-14.8
		c-0.8-4.6-1.8-9.1-2.5-13.7c-1.2-7.7-2.9-15.3-5.9-22.5c-1.6-3.9-3.5-7.7-4.9-11.6c-2.1-6-3.9-12.2-6-18.2c-1.5-4.1-3.5-7.9-5-12
		c-1.4-3.7-2.3-7.5-3.6-11.2c-2.4-7-6.1-13.5-7.4-20.9c-0.8-4.3-2.6-8.4-3.8-12.7c-2-7-4-14.1-6-21.2c-0.8-2.9-1.8-5.8-2.7-8.7
		c-1.3-3.7-2.7-7.4-3.9-11.1c-0.5-1.6-0.6-3.4-1.1-5.1c-1.1-3.7-2.4-7.3-3.4-11c-1.8-6.4-3.4-12.9-5.3-19.3c-0.9-3-2.3-5.9-3.3-8.9
		c-0.8-2.4-1.5-4.8-2.2-7.2c-1-3.5-1.8-7-2.8-10.5c-0.8-2.9-2-5.6-2.8-8.5c-0.6-2.1-0.6-4.5-1.5-6.5c-1.8-3.9-2.6-8.1-3.8-12.2
		c-1-3.6-2.5-7-3.6-10.6c-1.4-4.7-2.7-9.5-4.1-14.2c-1.3-4.5-2.7-9-3.7-13.5c-1.2-5.2-2-10.6-3.1-15.9c-1.8-8-3.8-16-5.6-24
		c-0.6-2.4-1-4.8-1.6-7.2c-1.8-7.1-3.8-14.1-5.5-21.2c-0.7-2.9-0.9-6-1.5-8.9c-1.6-6.8-3.4-13.6-5-20.4c-0.9-3.7-1.4-7.5-2.2-11.2
		c-1.1-5.5-2.4-11-3.6-16.5c-0.8-3.8-1.3-7.7-2.1-11.5c-0.8-3.8-2-7.5-2.9-11.3c-1.1-4.3-2.2-8.6-3.1-13c-1.2-5.8-2.1-11.7-3.3-17.6
		c-1.8-8.7-2-17.6-3.8-26.3c-1.4-6.8-1.6-13.8-2.2-20.8c-0.6-7.2-1.3-14.5-1.6-21.7c-0.4-8.3-0.4-16.7-0.4-25
		c0-3.4-0.1-6.9,0.1-10.3c0.3-4.9,0.7-9.9,1.1-14.8c0.2-2.5,0.2-5.1,0.5-7.6c0.8-5.8,1.9-11.5,2.7-17.2c0.9-6.7,1.5-13.4,2.6-20
		c1.6-10,4.9-19.5,8.3-29.1c2.3-6.6,4.5-13.2,6.8-19.7c0.8-2.1,1.6-4.2,2.7-6.3c1.5-2.9,3.1-5.8,4.7-8.7
		C181.4,54.8,183.4,51,185.4,47.2z M349.8,739.1c0.6-3.7,1.8-7.3,1.8-10.9c0-6.1-1.9-11.9-3.7-17.6c-0.2-0.7-0.6-1.3-1-1.9
		c-4-5.3-8.6-10-13.9-13.8c-2.8-2-5.8-3.6-8.8-5.3c-1.8-1-3.6-2.1-5.5-2.6c-2.1-0.5-4.4-0.5-6.8-0.7c5-3.7,9.8-7.4,14.8-10.8
		c4.4-3,9-5.7,13.4-8.8c2.6-1.9,5-2.9,8.3-2.1c5.4,1.2,10.8,2.3,15.5,5.1c4.9,3,8.5,7.4,11.5,12.3c2.2,3.6,3.4,7.5,4.2,11.5
		c1,5.3,1.8,10.7,0.3,16.1c-0.2,0.7-0.2,1.6-0.6,2c-3.3,3.2-6.6,6.4-10,9.6c-3.9,3.8-7.8,7.6-11.7,11.2
		C355,734.8,352.2,737.1,349.8,739.1z M315.4,687.6c1.6,0.3,3.5,0.2,4.8,1c4.8,2.8,9.5,5.7,13.9,9c3,2.2,5,5.7,8,7.8
		c3.9,2.8,5.1,6.9,6.4,11c0.8,2.6,0.9,5.4,1.3,8.1c0.8,5.3-0.1,10.3-2.4,15c-0.7,1.4-2,2.9-3.4,3.6c-3.2,1.5-6.8,1.2-10.1,0.3
		c-5.6-1.5-10.5-4.6-14.5-8.5c-4.9-4.8-9.1-10.3-11.3-17.1c-1.6-5.1-3.5-10.1-3.1-15.5c0.2-3.4,0.7-6.7,1.1-10
		c0.1-0.5,0.3-1.1,0.7-1.4C309.2,688.9,311.8,687,315.4,687.6z M346.2,662.1c-2.7,1.2-5.1,2.2-7.4,3.5c-2.4,1.3-4.6,2.8-6.9,4.3
		c-0.6-1.8-1.1-3.4-1.6-5c-1-3.5-1.9-6.9-2.9-10.4c-1.4-4.9-3-9.8-4.4-14.8c-1-3.9-1.9-7.8-2.8-11.7c-1-4.3-1.3-8.6,2.3-12.1
		c3-2.9,6-5.8,9.2-8.4c4.6-3.7,9.4-7.1,14.1-10.6c3.4-2.5,7.2-4.4,11.5-3.8c4,0.5,7.9,1.5,11.7,2.5c1.3,0.3,2.5,1.3,3.8,2
		c-0.1,0.2-0.1,0.5-0.2,0.7c-4.6-0.6-7.4,2.8-10.8,4.7c-2.9,1.7-5.4,4.1-8.1,6.2c-4.1,3.2-8.2,6.2-12.3,9.4
		c-3.7,2.9-4.7,6.7-3.6,11.2c1.3,5.4,2.7,10.8,4,16.1c0.4,1.7,0.4,3.6,0.9,5.3C343.7,655.2,345.1,659,346.2,662.1z M449.8,623
		c1.2-6.3-3-13.5-11.2-10.6c0.7-1.8,0.9-3.5,1.9-4.4c0.5-0.5,2.4,0.3,3.5,0.8c1.4,0.6,2.7,1.4,3.8,2.4c1.3,1.1,2.3,2.5,3.5,3.7
		c0.4-0.6,0.4-1,0.2-1.2c-2.4-4.3-6.5-6.2-11-7.3c-1.8-0.4-3.3,0.3-4.6,1.8c-1.7,2-0.8,4.1-0.5,6.2c-4.4,3.4-8.7,6.8-13.3,10.4
		c-0.9-2.1-1.7-3.7-2.2-5.4c-0.9-3.1-2-6.2-2.1-9.3c-0.1-2.5,0.3-5.2,1.7-7.6c1.1-1.8,1.5-4.1,2.9-5.5c2.5-2.5,5.9-3.7,9.4-3.7
		c5.3,0,10.4,1.2,14.7,4.5c3.5,2.7,7,5.6,9.9,8.9c3,3.4,4.7,7.7,6.1,12.1c1.4,4.5,1.7,9.1,1.8,13.7c0.1,2.6-1.2,5.3-1.7,7.9
		c-0.4,2-1.8,2.8-3.5,3.5c-4,1.8-8,1.3-12,0.3c-4.6-1.2-9-2.7-12.9-5.5c1-1.1,1.8-2.1,2.7-3c3.5-3.2,6.9-6.5,10.5-9.6
		c0.6-0.5,1.4-0.8,2.1-1.1c2.3-0.9,4.7-3.2,2.8-6.6C451.3,622.1,451.3,622.1,449.8,623z M436.6,614.1c-0.7-4.5-0.3-5.6,1.7-6.2
		c-0.1,1.3-0.1,2.8-0.4,4.3C437.8,612.8,437.2,613.2,436.6,614.1z M372.8,660.1c-1.6-1.8-1.6-4.7,0-6.3
		C372.8,655.9,372.8,657.9,372.8,660.1z M371.7,610c0.1-0.1,0.2-0.3,0.3-0.4c0.9,0,1.8,0,2.8,0c0,1,0.1,1.8,0.1,3.1
		C373.7,611.7,372.7,610.9,371.7,610z M288.6,271.9c-0.1-1.2-0.3-2.1-0.4-3.1c0.7,0.4,1.2,0.7,1.6,1c0.5,0.3,0.9,0.6,1.5,0.9
		C290.5,271.1,289.7,271.5,288.6,271.9z M372.9,605.4c0.3,0.9,0.6,1.7,0.9,2.6c0.1,0.3,0.1,0.7,0.1,1c-0.4,0-0.8,0.1-1-0.1
		C371.4,608,371.5,606.5,372.9,605.4z"/>
	<path class="st0" d="M364.8,169.9c-2.5,0.9-5,1.8-7.5,2.8c-2.4,1-4.8,2.1-7.2,3.2c-0.8,0.4-1.5,0.9-2.2,1.3
		c-3.8,2.2-7.8,4.2-11.4,6.7c-1.6,1.1-2.8,3.2-3.7,5.1c-2.6,5.9-3.9,12.1-2.7,18.5c0.2,0.9-1.3,2.4,0.9,2.6l0,0
		c-0.2-1.9-0.4-3.7-0.5-5.6c-0.2-4.3,1.5-8.3,2.6-12.4c0.9-3.5,3.1-6.4,5.7-8.5c2-1.6,4.3-3.6,7.5-3.4c3,0.2,6.2-1.1,9-0.5
		c4.5,0.9,8.6,3.3,12,6.6c3,2.9,5.8,6,8,9.7c3.5,6,5.4,12.3,5.4,19.3c0,1.5,0,2.9,0,4.4c0.2,0,0.4,0,0.7,0c0-0.3,0.1-0.6,0.1-0.9
		c0.4-6-0.3-11.9-2.3-17.5c-2-5.6-5.8-10.3-10-14.4c-2.5-2.4-5.5-4.5-8.6-6.1c-3-1.6-6.3-3.1-10-2c-0.5,0.1-1-0.1-2-0.3
		c4.1-2.1,7.8-3.8,11.4-5.7C361.5,171.9,363.1,170.8,364.8,169.9L364.8,169.9z"/>
	<path class="st0" d="M369.2,167.8c-1.9-0.2-3.5,0.2-4.4,2.1l-0.1-0.1C366.6,170,368,169,369.2,167.8L369.2,167.8z"/>
	<path class="st0" d="M325.7,390.8c-2.5,1.7-4.9,3.5-7.4,5c-4.9,3-9.9,6-14.9,8.8c-2.1,1.2-4.5,2.1-6.6,3.3
		c-2.6,1.4-5.2,2.9-7.9,4.5c-2.7-5.7-3.9-11.8-4.8-18c-0.6-3.9-1.9-7.7-2.7-11.6c-0.5-2.5-0.6-5.2-1.2-7.7c-1.3-5.7-2.6-11.3-4.1-17
		c-0.8-3.1-2-6.1-2.8-9.2c-0.9-3.6-1.5-7.3-2.2-10.9c0-0.2-0.1-0.5-0.7-0.8c-0.1,0.4-0.3,0.9-0.2,1.3c1.5,6.2,3,12.4,4.4,18.5
		c1.7,7.5,3.4,15,5.1,22.5c1,4.2,1.9,8.5,2.9,12.8c1.4,6.6,2.9,13.2,4.2,19.8c1.5,7.1,2.9,14.2,4.4,21.3c0.9,4.3,1.7,8.6,2.6,12.9
		c0.7,3.2,1.4,6.3,2.1,9.5c0.3,1.5,0.4,3,0.7,4.5c1,4,2,8,3,12c0.8,3.1,1.4,6.2,2.2,9.3c0.1,0.6,0.5,1.2,1,1.6
		c-5.4-23.1-9.5-46.3-14-69.3c6.5-3.4,12.9-6.7,19.2-10.3c5.8-3.3,11.4-6.9,17.1-10.4c0.6-0.4,1.1-1,1.5-1.6c0.1-0.2,0-0.6,0-0.9
		C326.4,390.7,326,390.8,325.7,390.8C325.7,390.8,325.7,390.8,325.7,390.8z"/>
	<path class="st0" d="M285.1,192c-1.5-0.5-2.7-0.9-3.9-1.4c-2.7-1.2-4.6-0.8-6.1,1.8c-0.9,1.6-1.6,3.3-2.4,4.9
		c0.2,0.1,0.4,0.2,0.6,0.3c0.9-1.6,1.6-3.2,2.5-4.7c1.1-1.8,2.6-2.4,4.6-1.4c0.6,0.3,1.2,0.6,1.9,0.7c2.2,0.5,3.8,1.5,3.9,3.7
		c-1.2,0.4-2.5,0.4-3.4,1.1c-1,0.7-1.9,1.8-2.5,2.9c-0.9,1.8,0.1,4.1,2.1,5.2c-1.4,0-2.8,0-4.4,0c0.5,0.4,0.8,0.7,1.1,0.9
		c-2.7,2.9-3.9,2.6-5.4-1.5c1.5,0,3,0,4.8,0c-0.3-1.9-0.6-3.4-0.9-4.8c-0.3,0-0.7,0.1-1,0.1c0.1,1.4,0.3,2.8,0.4,4.3
		c-1.3-0.4-2.7-0.8-4-1.3c-0.3-0.1-0.5-0.5-0.6-0.8c-1.2-5.3-0.2-10.1,3.2-14.4c1.1-1.3,2.3-2.6,3.8-4.1c-1,0.4-2,0.4-2.6,1
		c-3.9,3.7-5.9,8.4-6.2,13.5c-0.1,2.6,1.3,5.3,2.3,7.8c0.7,1.7,1.9,3.2,3,4.8c1,1.5,4.8,2.1,6.9,1.2c2.8-1.2,4.5-3.5,5.3-6.2
		c1.5-5.1,1.5-10.2-0.3-15.2c-1.2-3.5-3.6-5.9-7.6-6.4C283.3,185.7,284.4,188.5,285.1,192z M277,209.7c1-1,1.8-2,2.7-3
		c0.2-0.2,0.5-0.6,0.7-0.6c4,0.6,4-3.9,6.5-5.2c-0.1-2.2,0-4.5-0.2-6.7c-0.1-1.1-0.5-2.2-0.8-3.5c2.6,1.9,1.8,4.5,2.1,6.7
		c0.9,4.9-0.7,9-4.4,12.3C281.7,211.5,278.9,211.5,277,209.7z M281.7,203c-0.4-2.2,0.8-4.3,2.9-5.3C285.6,200,284.6,201.9,281.7,203
		z"/>
	<path class="st0" d="M271.2,163.7c0.3,0.6,0.4,0.9,0.5,1.2c-2.4,0.7-4.8,1.5-7.2,2.2c-0.1-0.2-0.2-0.6-0.4-1
		c-7.9,3.6-13.8,9.1-16.5,17.6c-0.1,0.4-0.4,0.8-0.3,1.1c0.5,3-1.1,4.8-3.2,6.4c-2.7,2.1-3.8,5.2-4.9,8.3c-1.8,4.7-0.5,9.1,0.9,13.5
		c0.2,0.6,0.7,1.2,1.6,1.5c-0.4-1-0.9-2-1.1-3.1c-1-4.6-2.2-9.3,0.3-13.7c1.5-2.7,3.9-4.9,5.9-7.3c0.8-1,1.7-2.1,2.1-3.3
		c1.2-3.7,2.8-7.1,5.3-10.2c4.1-5,9.3-8.1,15.2-10.1c4.2-1.3,8.5-1,12,2.5c1.1,1.1,2.5,1.9,3.9,2.5
		C281.8,167.5,276.5,166.1,271.2,163.7z"/>
	<path class="st0" d="M222.2,209.3c-1.7-3.2-3.2-6.6-5.2-9.7c-2.1-3.3-2.7-7-3.4-10.6c-0.8-4,1-6.9,3.4-9.9c1.9-2.4,3.6-5.2,4.4-8.2
		c2-6.9,6.5-11.3,12.8-14.2c3.4-1.5,6.8-2.3,10.4-2.4c3.6,0,6.7,1.4,9.7,3.1c0.9,0.6,2.1,0.8,3.1,1.2c0.1-0.1,0.2-0.3,0.3-0.5
		c-1-0.6-1.9-1.2-2.9-1.8c-2.9-1.5-5.6-3.6-9.1-3.4c-2.5,0.1-5.1,0.3-7.5,0.9c-1.8,0.4-2.9,0.6-2.6-1.7c0-0.3-0.2-0.6-0.3-0.9
		c-0.2,0-0.4,0-0.6,0c0,1.1,0,2.3,0,3.3c-2.2,1.2-4.6,2.3-6.7,3.8c-3.6,2.7-5.9,6.4-7.2,10.7c-1.1,3.9-3.1,7.2-5.6,10.1
		c-3.6,4.1-4.1,8.8-2.7,13.7c0.7,2.6,2,4.9,3.2,7.3c1.1,2.2,2.4,4.4,3.7,6.4C220.1,207.7,221.3,208.4,222.2,209.3
		C222.2,209.2,222.2,209.3,222.2,209.3z"/>
	<path class="st0" d="M325.7,390.8c-0.8-3.9-1.5-7.8-2.3-11.6c-1-4.6-1.9-9.3-3-13.9c-1.5-6.8-3.1-13.6-4.6-20.5
		c-1.2-5.4-2.3-10.8-3.6-16.2c-1.1-4.6-2.3-9.2-3.4-13.8c-0.2-0.8,0-1.7,0-2.9c-3,1.9-5.6,3.6-8.2,5.3c0.1,0.2,0.2,0.3,0.3,0.5
		c2.3-1.1,4.5-2.1,7-3.2c0.9,4,1.8,7.8,2.6,11.6c1.6,6.8,3.2,13.5,4.7,20.3c1.9,8.5,3.8,17,5.7,25.4c1.3,5.7,2.4,11.4,3.7,17.1
		C324.7,389.6,325.3,390.2,325.7,390.8C325.7,390.8,325.7,390.8,325.7,390.8z"/>
	<path class="st0" d="M294.9,600.8c0-0.6,0-1.1,0-1.7c-0.1,0-0.3,0-0.4,0c-0.2,1.3-0.3,2.7-0.5,4c0.2,0,0.4,0.1,0.6,0.2
		c0.5-0.5,1-0.9,1.6-1.5c0,2.5-0.2,2.7-2,3.8c-1.4,0.9-2.9,1.7-4,3c-0.8,1-1.2,2.4-1.4,3.8c-0.1,0.6,0.3,1.8,0.6,1.9
		c0.7,0.2,1.7,0,2.4-0.4c2.9-1.5,3.5-4.5,4.5-7.2c0.3-0.8,0.4-1.7,0.6-2.6c0.6,2.1,1.4,2.4,2.9,1.3c1.1-0.8,2.1-1.7,3.1-2.6
		c0,0,0.1-0.2,0.1-0.2c3.1-0.4,2.4-2.8,2.8-4.8c0.4-1.7,1.3-3.2,2-4.8c0.2-0.5,0.4-0.9,0.6-1.4c-2.7-0.1-4.4,3.5-4.4,8.9
		c-0.7-0.8-1.4-1.7-2.3-2.9c-1.1,0.8-2.2,1.7-3.3,2.4c0.3-1.5,0.6-3.2,1-4.9c-0.3-0.1-0.6-0.2-0.9-0.3c-1.1,2-2.2,4.1-3.4,6.1
		C295.2,600.8,295,600.8,294.9,600.8z M290.5,612.8c-1-3.9,2.6-4.3,4.1-6.2C294,610.8,292.9,612.5,290.5,612.8z M299.3,600.8
		c1.6,2,1.2,3-1.4,3.9C298.3,603.3,298.8,602.2,299.3,600.8z"/>
	<path class="st0" d="M304.9,396.4c2.1-0.9,4.2-1.7,6.3-2.6c-0.4-1.6,1.1-1,1.7-1.4c2-1.3,4.1-2.4,6.2-3.4c0.5-0.3,1.2-0.3,2.3-0.5
		c-0.5-1.5-1.1-3.1-1.5-4.3c-1.4,0.5-2.4,1.1-3.4,1.2c-1.5,0-2,0.6-2.2,2c-0.1,0.5-0.6,1-0.9,1.5c-0.2-0.1-0.3-0.2-0.5-0.3
		c0.2-0.5,0.3-0.9,0.5-1.4c-0.1,0-0.2-0.2-0.3-0.2c-0.5,0.2-1.4,0.4-1.4,0.7c-0.3,1.6-1.1,1.8-2.7,2.2c-2.2,0.5-4.1,2.1-6,3.2
		c0.7,1,1.1,1.8,1.6,2.5C304.7,395.9,304.8,396.1,304.9,396.4z"/>
	<path class="st0" d="M270.7,334.9c10.8-3.6,19.3-11,29.1-16.1c-0.1-0.3-0.3-0.5-0.5-0.8c-9.1,5.2-18.2,10.4-27.7,15.9
		c-3.4-10.7-4.5-21.5-7.1-32c-1.8,0.6-1.1,2-0.9,2.9c1.2,5.9,2.5,11.8,3.9,17.6c0.6,2.6,1.5,5.2,2.2,7.9c0.3,1,0.5,2.1,0.7,3.1
		C270.5,334,270.6,334.6,270.7,334.9z"/>
	<path class="st0" d="M290,365.7c-0.1-0.5-0.1-1.3-0.5-1.5c-2.5-1.5-2.3-4.2-2.5-6.5c-0.4-4.6,0.4-9.1,2.5-13.3
		c0.8-1.6,1.6-3.2,2.7-4.7c0.6-0.9,1.7-1.7,2.7-2c3.6-1.2,8.5-0.1,10.1,4.9c0.5,1.6,1,3.2,1.5,4.8c0.4,1.5,0.7,3,1.5,4.4
		c-0.2-1.9-0.2-3.8-0.7-5.7c-0.7-3-1.4-6.1-4.2-8.2c-4.3-3.1-9.3-1.7-12,2c-3.1,4.4-4.9,9.1-5.1,14.3c-0.1,3.2-0.8,6.8,1.5,9.7
		c0.6,0.7,1.2,1.4,1.8,2.1C289.5,365.9,289.8,365.8,290,365.7z"/>
	<path class="st0" d="M294,591.1c-1.2,0.3-1.9,0.4-2.7,0.6c-0.1-0.8-0.3-1.7-0.5-2.7c-2,0.3-2.2,1.1-1.1,4.3c-0.5-0.5-0.9-1-1.4-1.6
		c-2.3,0-1.8,3.1-4,3.8c-1.4,0.4-0.7,3.7-3.5,4.5c0.9,1,1.6,1.9,2.2,2.7c0.9-1.3,1.6-2.3,2.3-3.3c0.2,0.1,0.3,0.2,0.5,0.2
		c-0.2-0.4-0.4-0.8-0.7-1.3c1.5,0.2,2.4-0.2,2.8-1.8c0.2-0.7,1.2-1.1,1.8-1.6c0.6-0.5,1.2-1.1,1.9-1.6
		C292.3,592.7,292.9,592.1,294,591.1z"/>
	<path class="st0" d="M292.3,400.9c0.4,0.6,0.5,1.2,0.9,1.6c0.5,0.6,1.1,1.1,1.6,1.6c0.1-0.7,0.2-1.4,0.3-1.9c0.5-0.1,1.3,0,1.8-0.3
		c1.3-0.7,2.9-0.8,3.7-2.5c0.5-1,0.9-1.3,0.3-2.3c-0.4-0.7-1.3-0.3-1.6-0.4c-2.5-0.8-2.7,1-3.3,2.4c-0.4-0.2-0.7-0.4-1.2-0.7
		c-0.1,0.7-0.3,1.2-0.4,1.8c-1.5-0.5-3.1-1-4.4,0.6c-1.1,1.3-0.9,2.6,0.1,3.6c0.6,0.5,1.7,0.5,2.5,0.7c0.1,0,0.5-0.4,0.5-0.7
		c0-0.2-0.3-0.5-0.5-0.7C290.7,403,290.6,402.5,292.3,400.9z"/>
	<path class="st0" d="M315,585.5c0.7,0.4,1.3,0.2,1.4-1.3c0.1-1.3,0.4-2.5,0.6-4c-1.3,0.5-2.3,0.8-3.2,1.1c-0.8-0.4-1.6-0.9-2.5-1.4
		c-0.6,1-1,1.8-1.5,2.6c-0.7-0.9-1.4-1.7-2.1-2.6c-1.6,1.1-2,2.7-1,4.1c0.7,1,2,0.9,4.3-0.6c1.5,2.3,1.8,2.2,4.3-1.1
		C315.2,583.3,315.2,584.1,315,585.5z"/>
	<path class="st0" d="M306.5,381.1c-1.6,1.2-7.1,2.9-8.4,1.7c-1.1-1-1.6-2.7-2-4.2c-0.6-2.2-1.5-4.2-3.5-5.7c0.1,0.6,0.2,1,0.3,1.7
		c-2.1-0.8-2.2-2.4-2.6-4c1.5,0,2.9,0,4.2,0c-1.8-1.4-5.4,0.7-5.3-3.4c-0.2,0-0.4,0-0.6,0c0,0.8-0.2,1.9,0.2,2.3
		c1.2,1.2,0.6,3,1.6,4.1c0.6,0.7,1.2,1.8,2,1.9c1.5,0.2,1.7,1.2,2.1,2.2c0.6,1.8,1.2,3.6,2.1,5.4c0.3,0.6,1.4,1.4,2.1,1.3
		c2.2-0.4,4.4-1,6.5-1.7C305.7,382.5,306,381.7,306.5,381.1z"/>
	<path class="st0" d="M251,202.3c-0.7-0.1-1.6-0.4-2-0.2c-0.5,0.3-0.9,1.3-0.8,1.8c0.5,2.4,1,4.7,1.8,7c2.1,5.7,5.5,10.6,10.4,14.3
		c0.5,0.4,1.1,0.4,1.8,0.4c-6.1-5.4-10.6-11.6-12.9-19.3c-0.6-2,0-3.2,1.7-3.4C250.9,202.7,251,202.5,251,202.3z"/>
	<path class="st0" d="M304.8,366.8c0.1,0.7,0,1.5,0.2,2.1c0.5,1.4,0.6,1.5-1,1.6c-0.2,0-0.4,0-0.6,0.1c-1.5,0.9-3,1.7-4.4,2.7
		c-0.5,0.4-0.9,1-1.5,1.6c-0.5-1.1-0.9-2.2-1.4-3.4c-0.2,0.1-0.3,0.1-0.5,0.2c0,0.2,0.1,0.5,0.1,0.7c0.3,1.1,0.5,2.3,0.8,3.4
		c1-0.3,2.1-0.5,3-1c2.2-1.1,4.4-2.4,6.4-3.7c0.4-0.2,0.5-1.3,0.4-1.9c-0.2-0.8-0.7-1.5-1-2.3C305.2,366.9,305,366.8,304.8,366.8z"
		/>
	<path class="st0" d="M290.1,360.2c1.4-1.3,2.2-3.3,4.4-2.5c0.4,0.1,0.6,0.9,0.9,1.4c-1,0.2-1.8,0.3-2.5,0.5
		c0.5,0.4,0.9,0.8,1.4,1.3c-0.2,0.8-0.5,1.8-0.8,2.9c-1.9,0.9-1.9-1.6-3.4-2.1c0.4,0.9,0.5,1.7,1,2.1c0.5,0.5,1.4,1.2,2,1.1
		c0.5-0.1,1.1-1,1.4-1.7c0.5-1.1,1-2.3,1.3-3.5c0.2-0.7,0.6-1.7,0.3-2c-0.7-0.7-1.7-1.5-2.7-1.6
		C291.6,355.9,289.9,358.1,290.1,360.2z"/>
	<path class="st0" d="M305.8,353.9c0.1-0.4,0.2-0.8,0.2-1.1c0.1-1.4-0.9-2.1-2.3-1.7c-2.7,0.8-4.2,2.5-3.6,4.5
		c0.2,0.6,0.8,1,1.3,1.4c0.2,0.1,0.5,0.2,0.8,0.1c1,0,2,2.1,3,0.1c0.5-1,0.6-2.2,0.9-3.4C306,354,305.9,354,305.8,353.9z
		 M300.5,355.4c0.7-1.1,1.1-2,1.8-2.6c0.5-0.4,1.4-0.4,2.2-0.6c0.1,1.1,0.3,2.2,0.3,3.3c0,0.4-0.3,0.9-0.5,1.4
		c-0.5-0.3-0.9-0.7-1.4-0.9C302.5,355.8,301.9,355.7,300.5,355.4z"/>
	<path class="st0" d="M257.3,194.8c1.8-6.1,1.5-12.4,6.5-17.1C259.9,178.7,255.8,189.4,257.3,194.8z"/>
	<path class="st0" d="M305.1,581.5c-1.4,0.1-2.4,0.2-3.5,0.2c0.5,1.2,0.7,1.9,1,2.6c-0.1,0.1-0.2,0.2-0.4,0.2
		c-0.5-0.8-1.1-1.6-1.7-2.5c-1.4,1.3-1,2.6-0.6,3.8c0.1,0.3,1.6,0,2.5,0c2.2,0.2,2.1-1,1.8-2.6C304.2,583,304.6,582.5,305.1,581.5z"
		/>
	<path class="st0" d="M222.2,209.2c0.6,1.1,0.9,2.4,1.7,3.4c2.3,3.1,3,6.8,3.6,10.4c0.2,1,0.3,1.9,0.6,2.9
		C229.6,221.9,226.1,212.5,222.2,209.2C222.2,209.3,222.2,209.2,222.2,209.2z"/>
	<path class="st0" d="M290.4,258.8c-1.1,1.7-1.1,3.2,0.6,4.5c2.1,1.6,4.2,3.2,6.4,4.8c0.6,0.4,1.3,0.6,1.9,0.9
		c0.1-0.2,0.2-0.3,0.3-0.5c-2-1.6-3.8-3.4-6-4.7C291.8,262.5,290.5,261.2,290.4,258.8z"/>
	<path class="st0" d="M306.1,610.7c0.6-0.1,1.2,0,1.7-0.2c1.2-0.5,2.5-1.1,3.7-1.7c0.6-0.5,1.4-1.2,2-1.8c0.2-0.2,0.2-0.7,0.2-1.1
		l0.1,0.1c-1.5-1.2-2.5-1-3,0.7c-0.2,0.6-0.6,1.5-0.9,1.5c-0.6,0-1.3-0.5-2.4-1C307.2,608.3,306.7,609.5,306.1,610.7
		C306.2,610.8,306.1,610.7,306.1,610.7z"/>
	<path class="st0" d="M282.2,605.7c0-1.5,0.1-2.9-1.6-3c-1.4,0-2.5,0.8-2.3,2.3c0.1,1.3,0.4,2.5,2.2,2.5
		C282,607.5,282.4,606.8,282.2,605.7z"/>
	<path class="st0" d="M299.6,587.1c-0.8-1.1-1.4-1.9-2-2.8c-1.2,0.5-3.5-0.9-3.8,1.7c-0.1,1.1,0,2.9,2.3,3.3
		c-0.1-1.3-0.2-2.3-0.4-3.7c-0.1,0,0.3-0.2,0.8-0.6c0.3,0.9,0.4,1.8,0.9,2.3C297.8,587.6,298.8,587.2,299.6,587.1z"/>
	<path class="st0" d="M310.1,373c-0.1-0.8-0.3-1.5-0.3-2.3c-0.1-1.6-0.5-3.2-0.2-4.7c0.6-2.9-0.2-5-3-6.2c0.4,0.4,0.8,0.8,1,1.2
		c0.8,1.3,1.6,2.4,1,4.2c-0.4,1.2,0,2.8,0.1,4.2c0.1,1.2,0.3,2.5,0.4,3.7C309.5,373.1,309.8,373,310.1,373z"/>
	<path class="st0" d="M304.9,396.4c-0.1-0.3-0.2-0.5-0.3-0.8c-0.5-0.3-0.9-0.6-1.4-0.8c-0.5-0.3-1.1-0.5-1.7-0.7
		c-0.2,0.5-0.7,1.2-0.5,1.6c0.2,0.5,0.9,0.7,1.4,1c0.2,0.1,0.4,0.1,0.3,0.1c-0.2,0.6-0.5,1.2-0.7,1.8c0.8-0.2,1.6-0.4,2.3-0.8
		C304.6,397.7,304.7,396.9,304.9,396.4z"/>
	<path class="st0" d="M286.7,621.9c0,0.4-0.2,1.2,0.1,1.7c0.1,0.4,1,0.9,1.3,0.7c0.9-0.4,1.8-1,2.4-1.8c0.5-0.5,0.5-1.4,0.7-2.2
		c-0.2-0.1-0.3-0.2-0.5-0.3C289.5,620.7,288.3,621.2,286.7,621.9z"/>
	<path class="st0" d="M232.2,141.9c-0.8-3.2-1.7-6.4-2.5-9.6c-0.3,0.1-0.6,0.2-0.9,0.2c0.8,3.2,1.7,6.4,2.5,9.6
		C231.6,142.1,231.9,142,232.2,141.9z"/>
	<path class="st0" d="M307.8,595.3c2.2,0.7,5.8-1.6,6.1-4.2C312,592.5,310.1,593.8,307.8,595.3z"/>
	<path class="st0" d="M308.7,261.9c-2.3-2.1-4.1-4.4-4.4-7.7c-0.8,1.8-0.3,4,1.3,6.3C306.4,261.7,307.3,262.3,308.7,261.9
		C308.8,261.8,308.7,261.9,308.7,261.9z"/>
	<path class="st0" d="M261.4,160.3c2.7,2.1,6.2,2.3,9.2,3.7c0.1-0.2,0.1-0.3,0.2-0.5c-3-1.3-6.1-2.6-9.1-3.9
		C261.6,159.8,261.5,160,261.4,160.3z"/>
	<path class="st0" d="M300.3,614.6c0.5-0.1,1.1,0,1.6-0.2c1-0.3,2.4-0.2,1.6-2.2c1.6,0.3,2.9,0.5,2.6-1.5l0.1,0.1
		c-0.8,0.3-1.7,0.6-2.5,1c-0.8,0.3-1.6,0.7-2.3,1.2C301,613.4,300.7,614.1,300.3,614.6L300.3,614.6z"/>
	<path class="st0" d="M280.5,608.7c-0.6-0.4-1.4-0.9-2.2-1.4c-0.7,0.8-1.2,1.5-1.8,2.1c0.4,0.5,0.6,1.1,1.1,1.5
		c0.2,0.2,0.9,0.3,1,0.1C279.3,610.4,279.8,609.7,280.5,608.7z"/>
	<path class="st0" d="M297.3,362.2c-0.1,1.6-0.3,3.2-0.4,5.1c2.5-0.9,3.2-2.9,1.1-5C297.7,362.2,297.5,362.2,297.3,362.2z"/>
	<path class="st0" d="M299,362c0.5,1,1,2,1.6,2.9c0.2,0.3,1.1,0.1,1.7,0.1c-0.1-0.8,0-1.8-0.5-2.3c-0.5-0.6-1.5-0.8-2.3-1.1
		C299.4,361.8,299.2,361.9,299,362z"/>
	<path class="st0" d="M249.7,222.2c1.7,1.9,3.3,3.6,4.9,5.3C255.2,225.4,252.6,222.4,249.7,222.2z"/>
	<path class="st0" d="M287.1,609.1c-2,1.3-3.5,2.3-5.1,3.4C283.9,613.5,286.5,611.9,287.1,609.1z"/>
	<path class="st0" d="M225.7,122.5c0.8,2.7,1.7,5.4,2.5,8.1c0.2-0.1,0.5-0.1,0.7-0.2c-0.4-1.3-0.7-2.5-1.1-3.8c-0.5-1.3-1-2.7-1.6-4
		C226.2,122.6,225.9,122.6,225.7,122.5C225.7,122.6,225.7,122.5,225.7,122.5z"/>
	<path class="st0" d="M295.9,619c-0.5-0.7-0.9-1.2-1.3-1.8c0,0.2,0,0.5,0,0.7c-0.8,0.4-1.7,0.8-2.4,1.2c-0.3,0.2-0.5,0.7-0.7,1
		c0.1,0.2,0.2,0.3,0.4,0.5C293,620.2,294.2,619.7,295.9,619z"/>
	<path class="st0" d="M313.8,605.9c0.8-0.1,2.9,1.2,1.6-1.4c-0.1-0.1,0.5-0.5,0.7-0.8c0.1-0.3,0.3-0.8,0.1-1.1
		c-0.1-0.2-0.6-0.4-1-0.4c-0.3,0-0.8,0.3-0.9,0.6C314.1,603.9,314,604.9,313.8,605.9C313.9,606,313.8,605.9,313.8,605.9z"/>
	<path class="st0" d="M300.3,614.6c-1.1,0.1-2.2,0.1-4,0.2c0.6,1.1,1,1.7,1.4,2.3c0.5-0.4,1-0.8,1.5-1.2
		C299.6,615.5,300,615.1,300.3,614.6C300.3,614.6,300.3,614.6,300.3,614.6z"/>
	<path class="st0" d="M305,375c-0.4,0.2-0.8,0.5-1.2,0.8c0.1,0.1,0.2,0.3,0.3,0.4c-0.9,0-1.8,0-2.8,0c1.4,2.2,2.4,2,4-0.7
		C305.2,375.3,305.1,375.2,305,375z"/>
	<path class="st0" d="M245.1,225.3c0.1,0.3,0,0.8,0.1,0.8c1.8,0.6,3.5,0.8,5.3-0.4C248.7,225.5,246.9,225.4,245.1,225.3L245.1,225.3
		z"/>
	<path class="st0" d="M234.1,146.8c-0.8-1.5-1.5-2.9-2.4-4.7C231.6,144.7,232.7,146.6,234.1,146.8z"/>
	<path class="st0" d="M245.1,225.3c-1.8-0.4-3.6-0.9-5.3-1.4C240.4,225.2,243.7,226.1,245.1,225.3
		C245.1,225.3,245.1,225.3,245.1,225.3z"/>
	<path class="st0" d="M279,196.2c0.7-1,1.5-2,2.2-3c-0.2-0.2-0.5-0.4-0.7-0.5c-0.8,1-1.5,1.9-2.3,2.9
		C278.5,195.8,278.8,196,279,196.2z"/>
	<path class="st0" d="M232.9,269.6c0.5,0.4,0.9,1,1.5,1.2c3.4,1.2,5.8,5.2,4.5,8.6c-0.4,1.2-2.1,2.2-3.5,2.9
		c-0.8,0.4-2.1,0.1-3.6,0.1c2.5,1.3,8.8,0.7,11.2-0.6c0.3,2.2-0.3,3-3.6,4.6c0,0.2,0,0.4,0,0.6c0.6,0,1.3,0.1,1.9,0
		c2.2-0.7,3.3-2.4,3.5-4.5c0.7-7.3-1.6-13.6-7.4-18.2c-1.7-1.3-3.7-2.7-6.4-1.3c1.1,0.3,2,0.6,3,0.9c-1.3,0.6-2.2,0.8-1.9,2.6
		c0.2,1.1-0.3,2.7-1.7,3.8c-2.7,2.1-2.8,7.6-0.6,10.3c0.5,0.6,0.9,1.4,1.4,2c0.2-0.1,0.3-0.1,0.5-0.2c-0.3-0.9-0.7-1.9-1-2.8
		l0.1,0.1c-1.6-1.5-2-3-1.2-4.9c0.1-0.3,0.3-0.6,0.4-0.9C230.1,271.8,230.8,270.1,232.9,269.6c0.6-0.2,1.1-0.6,1.6-0.9
		c-0.6-0.4-1.2-0.8-1.8-1.3c0.9-2.1,3.4-2.8,4.8-1.2c2.1,2.3,4.2,4.7,5,7.8c0.4,1.6,1.2,3.6,0.7,5c-0.6,1.4-2.6,2.2-3.9,3.2
		c-0.2-0.2-0.4-0.4-0.6-0.6c1.8-1.1,2.8-2.5,2.9-4.5c0.1-2-0.6-4.8-1.9-5.5c0.2,1.4,0.5,2.7,0.7,4.1c-1.2-2.2-2.3-4.3-3.2-5.9
		C235.4,269.7,234.2,269.7,232.9,269.6z"/>
	<path class="st0" d="M212.6,277.9c-0.2-0.9-0.3-1.8-0.5-2.5c1.1,1.2,2.1,2.3,3.1,3.4c0.2-0.1,0.4-0.1,0.6-0.2c0-2.9,0-5.7,0-8.9
		c-2.9,1.3,0,2.9-1.1,4.3c-0.4-1.4-0.8-2.7-1.3-4.4c-0.4,0.9-0.7,1.6-1.1,2.5c-0.1-0.8-0.1-1.4-0.2-2.1c-0.2-0.1-0.4-0.2-0.5-0.2
		c-0.2,0.5-0.8,1.1-0.7,1.5c0.4,1.3,0.2,2.4-0.3,3.6C209.8,276.9,210.4,277.7,212.6,277.9z"/>
	<path class="st0" d="M230.5,279.4c1.5,0.5,3,1.1,4.5,1.6c-0.5-0.4-1.1-0.7-1.5-1.1c-0.6-0.6-1.6-1.2-1.7-1.9
		c-0.2-1.5-1.3-3.4,0.4-4.6c0.7-0.5,2.2-0.3,3,0.2c0.6,0.3,0.8,1.6,1.1,2.4c0.5,1.9-0.3,3.5-1.3,5.1c2.3-1.1,3.1-2.4,2.7-4.9
		c-0.4-2.8-1.5-4.1-3.6-4.4c-2-0.3-3.8,1.3-3.8,3.6C230.2,276.7,230.4,278.1,230.5,279.4C230.6,279.5,230.5,279.4,230.5,279.4z"/>
	<path class="st0" d="M249.9,277.2c-0.1,0.8-0.4,1.6-0.3,2.4c0.5,2.7,1,5.5,1.8,8.1c0.8,2.9,0.4,5.5-0.4,8.3c-0.1,0.2,0,0.4,0.1,0.6
		c0.2,0.2,0.4,0.4,0.6,0.6c0.1-0.4,0.3-0.8,0.4-1.2c0.8-4.2,1.1-8.4-0.2-12.6C251.3,281.2,250.5,279.2,249.9,277.2
		C249.9,277.2,249.9,277.2,249.9,277.2z"/>
	<path class="st0" d="M246.1,269.2c0.1,0.6,0.1,1.3,0.3,1.9c0.6,1.8,1.2,3.5,1.9,5.2c0.2,0.5,1,0.7,1.5,1l0,0
		C248.6,274.6,247.3,271.9,246.1,269.2C246.1,269.2,246.1,269.2,246.1,269.2z"/>
	<path class="st0" d="M247.5,284.9c1.3-1.5,0.8-3.4-1.7-5.3C246.5,281.6,247,283.2,247.5,284.9z"/>
	<path class="st0" d="M250.6,299.1c-0.4,1.7-0.8,3.5-1.2,5.2c0.1,0,0.2,0.1,0.4,0.1c0.6-1.7,1.1-3.4,1.7-5.1
		C251.2,299.2,250.9,299.2,250.6,299.1z"/>
	<path class="st0" d="M396.9,642.1c-0.2,1.3-0.4,2.5-0.5,3.8c-0.1,0.6,0,1.2,0.1,1.8c-0.6-0.2-1.1-0.3-1.7-0.5c0,0.1,0,0.2,0,0.3
		c-0.7,0-1.9,0.3-2.1-0.1c-0.5-0.8-0.9-1.9-0.9-2.8c0.1-1.7,0.6-3.5,0.7-5.2c-1.6,1.8-2,4-1.5,6.4c0.7,3.1,2.8,4.2,5.8,3.1
		c3-1.1,5.7-2.7,7-5.8c0.4-1,0.2-2.2,0.3-3.3c0-0.3-0.1-0.6,0-0.9c0-0.3,0.2-0.7,0.2-1c0-1.3-3.1-5.2-4.4-5.5
		c-2-0.5-3.3,0.5-3.7,2.5c-0.7,3.2-1.5,6.4-2.2,9.7c0,0.2,0.1,0.4,0.2,1c0.8-2.6,1.4-4.9,2-7.1c0.6-2.4,2.1-4,4.7-5
		c0.4,0.8,0.7,1.5,1.1,2.2C397.9,637.6,396.4,639.5,396.9,642.1c0.7-1.2,1.5-2.6,2.4-3.9c1.2-1.7,2.5-1.6,3.9,0.1
		c-2,1-4.1,4.5-3.8,6.2c0.5-0.8,1-1.8,1.7-3.1c0,1.7,0.4,3.1-0.1,3.9c-0.6,0.8-2.1,1-3.1,1.4C396.4,645.3,396.7,643.7,396.9,642.1z"
		/>
	<path class="st0" d="M385.1,647.4c0,0.6-0.1,1.1-0.1,1.3c1.7,0.7,3.4,1.4,5.1,1.9c0.6,0.2,1.5-0.3,2.1-0.6
		c-2.7-0.9-3.6-3.1-3.2-6.4c0.4-2.9,1.5-5.5,2.6-8.1l0,0c-0.6,0.4-1.3,0.6-1.6,1.1c-1.5,2.5-1.9,5.4-1.8,8.3c0,0.7,0,1.5-0.1,2.2
		c-1.3-2.7-1.6-5.7-0.2-8.2c2-3.5,4.3-6.8,6.9-9.8c1-1.1,3.3-1,5.2-1.4c-0.8-0.6-1.8-1.2-2.7-1.9c-0.5,0.5-1.3,1.2-2,1.8l-0.1,0
		c-5.7,2.7-10.1,11-9.3,17.3c0.1,1.1,0.6,2.3-1.1,2.7L385.1,647.4z"/>
	<path class="st0" d="M395.4,627.5l0.1,0c-0.4-0.7-0.7-1.8-1.3-1.9c-1.4-0.4-2.7-1.9-4.2-0.4c-0.3,0.3-0.6,0.5-1.1,0.8
		c0.1-0.7,0.1-1.2,0.2-2c-3.2,2.5-4.7,5.7-6,8.9c-0.9,2.2-1.3,4.6-2.1,6.8c-1,2.8,0.3,7.2,2.7,9c0.5-0.5,0.9-1,1.3-1.5l-0.1,0.1
		c-0.8-1.1-2-2.1-2.4-3.4c-1.5-4.7,1-8.7,2.9-12.7c0.5-1.2,1.5-2.2,2.4-3C391.3,625.3,392.7,625.2,395.4,627.5z"/>
	<path class="st0" d="M391.7,635.5c1.4-1.4,2.7-3,4.3-4.2c2.4-1.8,2.6-1.7,4.8,0.6c0-0.6-0.1-1.1-0.1-1.5c0-0.5,0.1-1,0.1-1.7
		c-0.4,0.6-0.7,0.9-0.9,1.3c-2-2.1-3.7-0.2-5.1,0.7C393.1,631.6,391.5,633,391.7,635.5L391.7,635.5z"/>
	<path class="st0" d="M391.4,621.9c2-0.2,3.3,0.3,5.9,2.5C396.1,621.6,394.2,620.8,391.4,621.9z"/>
	<path class="st0" d="M399.7,651.4c0.5,0,1.3,0.3,1.5,0c0.7-1.1,2.9-1.5,2.2-2.7c-0.8,1-1.7,2.2-2.6,3.3
		C400.4,651.8,400.1,651.6,399.7,651.4z"/>
	<path class="st0" d="M359.9,235.3c-3.5-1.3-7.2-2.8-10.8-4.2C349.6,233.3,356.6,235.9,359.9,235.3z"/>
	<path class="st0" d="M375.8,215.9c-0.7,3-1.2,5.5-1.8,7.9C375.7,222.7,376.7,219.1,375.8,215.9z"/>
	<path class="st0" d="M354.7,187c-1.8-0.1-3.5-0.2-5.3-0.4c0,0.2,0,0.4,0,0.6c1.8,0.2,3.5,0.3,5.3,0.5
		C354.7,187.5,354.7,187.3,354.7,187z"/>
	<path class="st0" d="M338.8,713.7c1.1-4.3-1.2-8.9-5.5-11c0-0.2,0.1-0.4,0.1-0.6c0.8,0.1,1.8,0,2.4,0.5c1.5,1.2,2.9,2.5,4.3,3.9
		c0.5,0.5,0.7,1.3,1.4,1.6c-0.8-4.6-8.1-10-13.3-9.2c0.8,0.3,1.5,0.7,2.3,1c0.4,1.6,0.4,3-0.8,4.6c-1.7,2.2-0.2,4.7,0.8,6.6
		c1.9,3.8,5.8,5.3,9.3,3.7c1.3,0.5,2.4,0.9,3.4,1.3c0.1-0.2,0.2-0.4,0.3-0.6c0.1,0.4,0.2,0.8,0.4,1.6c0.3-0.5,0.6-0.8,0.5-1
		c-0.4-1.6,1.4-3.9-1.2-4.4c-0.1-1-0.2-1.8-0.3-2.6c-0.2,0-0.4-0.1-0.6-0.1C341.8,711.1,341.4,713.2,338.8,713.7z M333.8,713.7
		c1.1-0.8,2.8-1.4,3-2.2c0.3-1.4,0-3.3-0.8-4.5c-1.7-2.3-3.9-1.5-6,0.1c0-0.8-0.1-1.4,0.2-1.8c1-1.4,3.6-1.5,5-0.5
		c2.8,2,3.1,6,2.6,8.9c-0.1,0.4-0.8,1.1-1.2,1C335.6,714.5,334.5,714,333.8,713.7z M335.9,710.1c-0.2,0.2-0.6,1.1-1.2,1.3
		c-1,0.3-3.5-2.3-3.2-3.6c0.1-0.5,0.9-1.3,1.5-1.4C334.6,706.2,335.9,707.7,335.9,710.1z"/>
	<path class="st0" d="M322.8,694.4c-0.4-0.8-0.8-1.5-1.3-2.5c-1.1,0.4-2.5,0.8-3.8,1.3c0,0.2,0,0.5,0,0.7c1.2,0.8,2.5,1.5,3.8,2.3
		C322.1,695.4,322.5,694.8,322.8,694.4z"/>
	<path class="st0" d="M343.1,728.3c-1,1.3-1.7,2.3-2.4,3.3c1.3,1.1,1.4,1,2.3-0.6c0.2-0.3,0.7-0.4,1.1-0.5c1.2-0.2,2.2-0.5,1.7-2.2
		C344.8,728.3,343.7,728.3,343.1,728.3z"/>
	<path class="st0" d="M339.1,730.2c-0.6,0.2-1.3,0.4-1.9,0.6c-0.4,0.2-0.7,0.4-1,0.6c0.2,0.4,0.4,0.9,0.7,1.1c0.3,0.2,1,0.1,1.3-0.2
		c0.6-0.5,1-1.1,1.5-1.7C339.5,730.5,339.3,730.3,339.1,730.2z"/>
	<path class="st0" d="M311.2,706.6c1.5-0.7,1.2,2.6,3.1,1.1C311.9,705.6,311.9,705.6,311.2,706.6z"/>
	<path class="st0" d="M346,629.1c1.8-0.3,3.8-0.2,4.8-2.2c0.3-0.5,0.4-1.2,0.6-1.6c-0.9-0.1-1.5-0.2-2.1-0.3c0-0.2,0-0.5,0.1-0.7
		c0.9,0,1.8,0,2.6,0c0-2.3-2.2-4.5-4.8-4.7c-1.9-0.1-3.8,1.3-3.9,4.1c-0.1,1.7-0.9,3.6,0.8,5C344.5,629.1,345.4,629,346,629.1
		c-0.2,0-0.4,0-0.5-0.1c-1.6-1.2-1.8-6.8-0.2-8.1c0.4-0.3,1-0.3,1.6-0.5c-0.5,1.3-1.3,2.2-1.3,3.2
		C345.5,625.6,345.8,627.3,346,629.1z M347.9,627.5c-2.3-1.1-2.6-2.8-0.8-5.2C347.4,624.1,347.6,625.8,347.9,627.5z"/>
	<path class="st0" d="M358.4,640c-2.5-4.9-3.6-10.1-3.3-15.7C353.8,630.1,354.9,635.4,358.4,640z"/>
	<path class="st0" d="M361.1,623c0.5,2.2,2.6,2.7,3.9,4.1c0.9,1.1,1.9,2.2,2.6,3.4c0.3,0.5,0,1.2,0,1.9c0.2,0,0.4,0.1,0.6,0.1
		c0.1-0.8,0.5-1.7,0.3-2.4C367.8,627.1,364,623.5,361.1,623L361.1,623z"/>
	<path class="st0" d="M362,641c-2.5,1.6-4.2,3.7-3.8,6.9c0.2,1.6,0.5,3.2,3.1,3.9C357.9,647.5,360,644.3,362,641z"/>
	<path class="st0" d="M361,623.1c0-0.5,0.2-1.1,0-1.4c-1.7-2.1-7.4-3.4-9.7-2.4C354.4,620.5,357.8,621.7,361,623.1
		C361.1,623,361,623.1,361,623.1z"/>
	<path class="st0" d="M369.8,664.3c-1.1-4.8-5.9-9.2-8-7.4C365.6,658,367.3,661.4,369.8,664.3z"/>
	<path class="st0" d="M368.7,646.1c-2.6,1.3-3.6,0.9-5.2-2.2c-0.7,1.5-0.1,2.5,0.9,3.4c1.2,1,2.6,1.2,4,0.5c0.4-0.2,0.5-0.9,0.8-1.4
		C369,646.3,368.9,646.2,368.7,646.1z"/>
	<path class="st0" d="M370.5,647.1c-0.8,1.6-1.6,3.1-2.3,4.6C370.8,651.5,371.8,649.5,370.5,647.1z"/>
	<path class="st0" d="M364.8,662.8c-1.2-1.9-2.2-3.4-3.2-4.9C360.9,659.2,362.1,661.3,364.8,662.8z"/>
	<path class="st0" d="M439.7,637.4c2.5,4.4,11.6,4.5,14.7,0.4C449.6,640.9,444.8,639.8,439.7,637.4z"/>
	<path class="st0" d="M444.4,602.6c-2.5-2.7-10.4-4.7-12.2-2.6C436.3,600.9,440.5,601.8,444.4,602.6z"/>
	<path class="st0" d="M429,600.3c-3.5,1.6-5.9,3.8-6.6,7.8C424.5,605.6,426.7,603,429,600.3z"/>
	<path class="st0" d="M452,609.3c1.9,2.9,3.8,5.8,5.6,8.7C457.8,615.6,454.5,610.4,452,609.3z"/>
	<path class="st0" d="M423.4,619.9c-0.4-3.8-0.7-7.4-1.1-10.8C421.2,610.6,421.7,617.5,423.4,619.9z"/>
	<path class="st0" d="M314.5,257c-4.5-2.6-2.4-6.5-2.2-10C309.6,250,309.7,255.6,314.5,257z"/>
</g>
</svg>
