<?xml version="1.0" encoding="utf-8"?>
<!-- Generator: Adobe Illustrator 27.1.1, SVG Export Plug-In . SVG Version: 6.00 Build 0)  -->
<svg version="1.1" id="Capa_1" xmlns="http://www.w3.org/2000/svg" xmlns:xlink="http://www.w3.org/1999/xlink" x="0px" y="0px"
	 viewBox="0 0 95.6 206.3" style="enable-background:new 0 0 95.6 206.3;" xml:space="preserve">
<style type="text/css">
	.st0{fill:#E3ABFF;}
</style>
<g>
	<path class="st0" d="M2.3,45.5c0,0.1,0.1,0.1,0.1,0.2c0,1.1,0,2.2,0,3.3c0,0.8,0.1,1.7,0.2,2.5c0.1,1.1,0.1,2.3,0.2,3.4
		C3,56.6,3.2,58.3,3.4,60c0.2,1.5,0.3,3.1,0.6,4.6c0.1,0.9,0.4,1.8,0.5,2.6c0.4,2,0.7,4,1.1,5.9c0.3,1.7,0.8,3.3,1.2,5
		c0.4,1.5,0.8,3,1.1,4.5c0.3,1.3,0.4,2.6,0.7,3.8c0.3,1.4,0.6,2.8,1,4.2c0.2,0.9,0.3,1.7,0.5,2.6c0.4,1.7,0.9,3.4,1.3,5.1
		c0.2,0.8,0.3,1.5,0.5,2.3c0.4,1.4,0.8,2.8,1.2,4.2c0.2,0.7,0.2,1.4,0.4,2.1c0.2,0.9,0.5,1.8,0.7,2.8c0.4,1.7,0.7,3.4,1.1,5.1
		c0.3,1.4,0.8,2.8,1.2,4.2c0.3,1.1,0.6,2.2,1,3.3c0.2,0.8,0.5,1.6,0.7,2.5c0.5,1.9,1.1,3.8,1.6,5.7c0.4,1.3,0.7,2.6,1.2,3.9
		c0.8,1.8,1.2,3.7,1.8,5.5c0.6,1.9,1,4,1.6,5.9c0.4,1.3,0.8,2.7,1.2,4c0.3,0.8,0.5,1.7,0.8,2.4c0.9,2,1.1,4.2,1.8,6.2
		c0.5,1.5,0.9,3,1.4,4.6c0.2,0.8,0.4,1.5,0.6,2.3c0,0.2,0.2,0.3,0.2,0.5c0.4,1.2,0.9,2.4,1.3,3.5c0.3,0.8,0.6,1.6,0.9,2.3
		c0.4,1.1,0.9,2.2,1.2,3.3c0.5,1.4,0.9,2.8,1.3,4.1c0.3,0.9,0.9,1.8,1.2,2.7c0.4,1.2,0.8,2.5,1.1,3.8c0.4,1.8,0.6,3.5,0.9,5.3
		c0.4,2.1,0.7,4.3,1.3,6.4c0.4,1.4,0.9,2.8,2,3.7c0.8,0.7,1.7,1.3,2.7,1.8c2.3,1,4.4,0.4,6.4-0.4c1.7-0.7,3.3-1.6,4.8-2.6
		c1-0.6,1.9-1.5,2.8-2.3c1.1-1.1,2.3-2.1,3.3-3.3c1.1-1.4,2.2-2.8,3.1-4.3c0.9-1.4,1.6-2.8,2.5-4.2c1-1.8,1.8-3.6,2.3-5.6
		c0.3-1,0.6-2,0.8-3c0.4-1.9,0.7-3.9,1.2-5.8c0.4-1.6,0.2-3.3,0.1-4.9c0-0.4,0.2-0.6,0.4-0.9c1.5-1.3,3.1-2.6,4.6-4
		c0.2-0.2,0.3-0.4,0.5-0.7c1.2,1,2.6,1.6,4.1,1.8c0.9,0.1,1.8,0.3,2.6-0.2c0.7-0.4,1.3-0.9,1.9-1.4c0.4-0.3,0.8-0.7,1.2-1.1
		c-0.1,0.1-0.3,0.1-0.4,0.2c-0.4,0.3-0.8,0.7-1.2,0.9c0.1-0.9,0.3-1.7,0.3-2.5c0-0.7-0.1-1.4-0.2-2.1c-0.2-0.9-0.4-1.9-0.8-2.7
		c-0.6-1-1.4-2-2.2-2.9c-1.1-1.2-2.5-2-4.1-2.3c-0.3-0.1-0.7-0.2-1-0.2c-0.5,0-1,0.1-1.6,0.1c0.7-0.5,1.2-0.8,1.8-1.2
		c1.4-0.9,2.8-1.9,4.2-2.8c1-0.7,2.1-0.8,3.2-0.9c0.6,0,1.1,0.1,1.7,0.3c1,0.2,1.6,1,2.4,1.7c2.3,2.2,3.4,4.9,3.2,8
		c0,0.6-0.1,1.3-0.5,1.8c-0.7,0.9-1.5,1.6-2.3,2.4c-0.7,0.6-1.4,1.2-2.1,1.8c-0.1,0.1-0.1,0.3-0.2,0.5c0.4-0.3,0.8-0.5,1.2-0.9
		c1.2-1.1,2.3-2.3,3.4-3.4c0.9-0.9,0.8-2,0.9-3.1c0-0.3,0.1-0.5,0.1-0.8c0,0,0-0.1,0-0.1c0-0.2-0.1-0.5-0.1-0.7
		c-0.5-2.2-1.5-4.1-3.1-5.7c-0.8-0.8-1.7-1.4-2.7-1.9c-0.7-0.3-1.5-0.3-2.3-0.2c-0.5,0.1-1.1,0.1-1.6,0.3c-0.8,0.4-1.7,0.8-2.5,1.2
		c-1.4,0.9-2.7,1.9-4.1,2.9c-0.8,0.6-1.6,1.2-2.4,1.9c-0.6,0.6-0.8,1.3-0.9,2.2c0,0.9-0.1,1.9,0.1,2.8c0.2,0.8,0.6,1.6,0.9,2.4
		c-0.7,0.5-1.6,0.5-2.5,0.3c-0.3,0-0.5-0.2-0.5-0.6c0-0.4-0.1-0.8-0.1-1.3c-0.1-1.1-0.2-2.3-0.6-3.3c-0.4-1.2-0.8-2.4-1.1-3.7
		c-0.2-0.5-0.2-1.1-0.3-1.6c-0.2-0.7-0.4-1.4-0.6-2.1c-0.1-0.5-0.2-1.1-0.3-1.6c-0.2-0.7-0.3-1.4-0.5-2.1c0-0.2,0-0.4,0-0.5
		c0-0.1,0.1-0.1,0.1-0.2c-0.3-1.3-0.6-2.6-0.9-4c-0.1-0.4,0-0.9-0.1-1.4c-0.2-1.3-0.4-2.5-0.7-3.8c-0.1-0.6-0.2-1.2-0.3-1.9
		c-0.2-0.9-0.4-1.8-0.6-2.7c-0.2-1.4-0.5-2.7-0.7-4.1c-0.1-0.6-0.2-1.3-0.4-1.9c-0.2-0.9-0.4-1.9-0.4-2.8c0-1.2-0.4-2.4-0.6-3.6
		c-0.2-1.8-0.6-3.7-1-5.5c-0.3-1.4-0.5-2.9-0.9-4.3c-0.4-1.7-0.9-3.3-1.3-5c-0.1-0.3-0.1-0.5-0.1-0.8c0-1.3-0.5-2.4-0.8-3.5
		c-0.5-1.8-1-3.5-1.5-5.3c-0.2-0.8-0.3-1.7-0.4-2.6c0-0.2-0.3-0.3-0.3-0.5c-0.3-1.4-0.5-2.8-0.8-4.2c-0.2-0.8-0.5-1.5-0.6-2.3
		c-0.3-1.3-0.4-2.5-0.7-3.8c-0.3-1.5-0.6-3-0.9-4.5c-0.3-1.5-0.6-3-0.9-4.5c-0.3-1.6-0.6-3.2-1-4.8c-0.1-0.4-0.3-0.9-0.4-1.3
		c-0.1-0.4-0.1-0.8-0.2-1.2c-0.3-1.5-0.6-3-1-4.5c0-0.2,0-0.4,0.1-0.5c0.6-0.9,1.6-1.3,2.3-1.9c0.7,0.7,1.4,1.3,2.1,1.9
		c1,0.8,2.2,1.3,3.6,1.3c1.7,0,3.1-0.4,4.5-1.3c1.4-0.9,2.9-1.7,4.4-2.5c0.6-0.4,1.2-0.8,1.9-1.1c0.9-0.4,1.3-1.2,1.7-2
		c0.8-1.4,0.6-3,0.4-4.5c-0.2-1.1-0.4-2.2-0.9-3.2c-0.3-0.8-0.9-1.5-1.5-2.1c-0.7-0.7-1.4-1.4-2.1-2.1c-0.3-0.3-0.7-0.5-1.1-0.7
		C64.9,36.4,64,36,63,36c-0.9,0-1.8,0.2-2.6,0.8l0,0c0.3-0.1,0.7-0.2,1-0.2c0.6-0.1,1.2-0.5,1.8-0.2c0.3,0.1,0.7,0.1,1,0.3
		c1,0.4,1.9,0.8,2.7,1.6c0.4,0.4,0.8,0.8,1.2,1.2c0.7,0.8,1.4,1.7,1.9,2.6c0.7,1.4,1,2.9,1,4.4c0,1.2,0,2.4-0.8,3.4
		c-0.1,0.1-0.1,0.2-0.1,0.3c-0.2,0.3-0.4,0.6-0.7,0.8c-2,1.2-3.9,2.4-5.9,3.6c-0.6,0.4-1.3,0.6-2,1c0.7-1.1,1.6-2,1.6-3.3
		c-0.6,1.3-1.2,2.5-2.3,3.4c-0.1,0.1-0.3,0.3-0.4,0.3c-0.8,0.1-1.6,0.2-2.5,0.3c-1.2,0.1-2.2-0.6-3.1-1.3c-0.7-0.5-1.2-1.2-1.8-1.9
		c1.3-0.8,2.5-1.5,3.7-2.3c0.1,0.1,0.3,0.2,0.4,0.3c1.2,0.8,2.1,0.4,2.9-0.6c1-1.2,1.3-2.9,0.3-4.4c0,0.1,0,0.1,0,0.2
		c0.2,0.9,0.4,1.9,0.2,2.8c-0.2,0.6-0.6,1-1,1.5c-0.6,0.7-1.2,0.9-1.9,0.4c-0.1-0.1-0.2-0.5-0.1-0.5c0.4-0.3,0.9-0.6,1.4-0.9
		c0.2-0.1,0.4-0.3,0.5-0.4c0.6-1.3,0-2.8-1.3-3.3c-0.5-0.2-1-0.2-1.5-0.2c0.2-0.6,1-0.5,1.6-0.7c-0.8-0.3-1.8,0.1-2,0.8
		c-0.1,0.2-0.3,0.3-0.4,0.5c0,0-0.1-0.1-0.1-0.1c0.6-1.4,1.6-1.9,3.2-1.5c-1.1-1-3.1,0-3.3,0.8c-0.2,0.9-0.8,1.3-1.6,1.6
		c-0.1,0-0.2,0.1-0.3,0.2c-0.6,0.2-1.2,0.4-1.7,0.7c-0.5-1.6-0.2-3,0.4-4.4c-0.9,1.4-1.3,2.8-0.6,4.5c-0.5,0.1-0.9,0.1-1.3,0.2l0,0
		c-0.8,0.3-1.6,0.5-2.4,0.8c-0.8-2-1.6-3.8-2.3-5.7c-0.4-1-0.6-2-0.9-3c-0.9-2.7-1.8-5.3-2.5-8c-0.7-2.5-2-4.7-3-7.1
		c-0.8-2.1-2.1-3.9-3.4-5.7c-0.8-1.2-1.5-2.4-2.4-3.5c-1.3-1.6-2.5-3.3-4.2-4.6c-1.2-0.9-2.2-2-3.4-3C25.3,7.7,24.7,7.3,24,7
		c-0.9-0.5-1.7-1-2.6-1.4c-1.7-0.8-3.4-1.6-5.3-2c-0.5-0.1-0.9-0.2-1.4-0.3c-0.4,0-0.9,0-1.3,0c-0.3,0.3-0.6,0.7-0.9,1
		c-0.3,0.3-0.6,0.7-0.9,1.1c-0.4,0.7-0.8,1.5-1.2,2.3c-1,1.6-1.8,3.4-2.4,5.1c-0.7,1.7-1.2,3.4-1.8,5.2c-0.6,1.8-1.2,3.7-1.7,5.6
		c-0.3,1.2-0.4,2.4-0.5,3.7c-0.2,1.6-0.5,3.1-0.7,4.7c-0.2,2-0.4,3.9-0.5,5.9c-0.1,1.9-0.1,3.8-0.2,5.7c0,0.2-0.1,0.4-0.1,0.7
		C2.3,44.6,2.3,45,2.3,45.5z M47.7,57.8c-0.2,0.1-0.5,0.3-0.5,0.3c0.1,0.4,0.3,0.7,0.5,1.1c-0.2,0-0.4,0-0.5-0.1
		c-0.5-0.4-0.6-0.9-0.2-1.5c-0.7,0.2-0.5,0.8-0.5,1.2c0.4,0.3,0.8,0.5,1.1,0.8c-0.2,0.2-0.4,0.5-0.8,0.2c-0.2-0.2-0.5-0.3-0.7-0.5
		c0,0.1-0.1,0.1-0.1,0.2c0.3,0.2,0.5,0.4,0.8,0.6c-0.2,0.1-0.3,0.1-0.5,0.2c-0.2,0.1-0.3,0.3-0.4,0.4c-0.8,0.1-1.3-0.2-1.6-0.8
		c-0.4-0.8-0.3-1.5,0.3-2.1c0.2-0.2,0.3-0.4,0.4-0.5c0.4-0.4,0.7-0.8,1.1-1.2c0.2,0.3,0.4,0.5,0.5,0.7c-0.2,0.1-0.3,0.2-0.5,0.3
		c0.2,0,0.3,0,0.5,0c-0.1,0.1-0.1,0.2-0.2,0.3c0.3-0.1,0.5-0.2,0.7-0.2c0.2,0,0.4,0,0.7,0c-0.1-0.1-0.2-0.3-0.4-0.4
		c-0.6-0.1-0.7-0.7-1.2-1c0.7-0.3,1.2-0.7,1.8-0.9c0.2-0.1,0.7-0.3,0.9,0.2c0.2,0.5-0.3,0.5-0.5,0.7c0,0-0.1,0-0.1,0.1
		c0,0.1,0,0.1,0,0.2c0.3-0.1,0.6-0.1,0.7-0.3c0.1-0.1,0.2-0.5,0.2-0.6c-0.1-0.2-0.4-0.5-0.6-0.5c-0.4,0-0.8,0.1-1.1,0.2
		c-1.2,0.5-2.1,1.3-2.9,2.3c-0.5,0.6-0.9,1.2-1.6,1.5c-1.4,0.7-2.8,1.2-4.3,1.8c-0.7-2.1-2-3.6-3.3-5.2c0.8-0.9,1.3-1.8,1.2-2.9
		c0-0.3-0.2-0.6-0.3-0.9c-0.2-0.4,0.1-1.3,0.6-1.6c0.2-0.1,0.4-0.3,0.6-0.3c1,0.3,1.9,0.2,2.9,0.1c1.3-0.1,2.5,0.1,3.8-0.1
		c1.7-0.2,3.4-0.6,5.1-0.9c1.1-0.2,2.2-0.6,3.3-0.9c1.4-0.4,2.7-0.9,4-1.7c0.3-0.2,0.6-0.3,0.9-0.2c0.9,0.1,1.9,1,1.8,2
		c0,0.4-0.1,0.9-0.3,1.1c-1.6,1.1-3.2,2.1-4.7,3.1c-1.4,0.9-3,1.5-4.1,2.9c-0.3,0.4-0.8,0.8-1.1,1.2c-0.3,0.4-0.5,0.9-0.8,1.3
		c-0.2,0.3-0.3,0.1-0.4,0c-0.3,0.1-0.6,0.1-0.9,0.2C47.2,57.7,47.4,57.7,47.7,57.8c0.2,0.1,0.5,0.2,0.5,0.3c0,0.2-0.1,0.5-0.2,0.9
		C47.6,58.5,47.4,58.2,47.7,57.8z M53.1,159c0,0.3,0,0.7,0.1,1c0.2,0.7,0.4,1.4,0.6,2.1c0.4,1.7,1,3.3,1.5,4.9c-0.1,0-0.3,0-0.4-0.1
		c-0.3-0.7-0.6-1.4-0.9-2.2c-0.4-1.1-0.4-2.3-0.8-3.4c-0.4-0.9-0.5-1.9-0.7-2.9c-0.1-0.6-0.1-1.3,0.2-1.9c0,0.2,0,0.4,0,0.6
		C52.7,157.8,52.6,158.5,53.1,159c0-0.1,0-0.2,0-0.4c0-0.5-0.2-1.1-0.1-1.6c0.2-0.9,0.7-1.6,1.6-2.1c0.1-0.1,0.2-0.2,0.3-0.3
		c0.1-0.2,0.1-0.4,0.2-0.5c0.3-0.2,0.6-0.4,0.9-0.6c0.7-0.4,1.3-0.9,2-1.3c0.8-0.6,1.5-1.1,2.3-1.7c0.6-0.4,1.1-0.3,1.4,0.2
		c-0.5,0.1-1.1,0.2-1.6,0.4c-0.4,0.1-0.7,0.5-1,0.7c-0.7,0.5-1.5,1-2.2,1.5c-0.5,0.4-1,0.8-1.6,1.2c0,0.1,0.1,0.1,0.1,0.2
		c1.6-1.1,3.1-2.1,4.7-3.2c0,1.7,1.5,2.9,3.1,3.4c-1.4,0.8-2.6,1.7-2.7,3.4c0.2-0.3,0.2-0.7,0.4-1c0.3-0.7,0.9-1.1,1.4-1.5
		c0.5-0.4,1.1-0.6,1.7-0.6c0.2,0,0.3,0.2,0.5,0.3c-0.2,0.1-0.3,0.3-0.5,0.3c-0.4,0.1-0.8,0.2-1.1,0.4c-0.5,0.4-0.9,0.8-1.2,1.3
		c-0.7,1.1-1.2,2.3-0.8,3.6c0.1,0.4,0.4,0.7,0.4,1.1c0.1,0.6,0.1,1.2,0.1,1.8c0,0.2-0.1,0.5-0.3,0.6c-0.6,0.5-0.5,1.8,0.4,2.1
		c-0.2,0.6-0.4,1.3-0.6,1.9c-0.2,0.6-0.7,0.7-1.1,0.3c-0.2-0.2-0.4-0.3-0.6-0.5c-0.2-0.1-0.3-0.3-0.4-0.4c-0.2-0.2-0.4-0.5-0.5-0.7
		c-0.1,0-0.1,0.1-0.2,0.1c0.2,0.3,0.3,0.5,0.6,0.9c-0.8-0.3-1.4-0.7-2.1-0.7c-0.8-0.1-1-0.6-1.3-1.1c-0.3-0.6-0.5-1.3-0.7-1.9
		c-0.3-0.9-0.5-1.8-0.8-2.8c-0.1-0.2-0.1-0.4-0.1-0.6C53.5,160.2,53.3,159.6,53.1,159z M28.1,63.4L28.1,63.4
		c-0.3-0.5-0.4-1.2-0.8-1.6c-0.8-1-1.7-2-2.7-2.7c-0.9-0.7-2-1-3-1.5c-0.1,0-0.2,0-0.3,0c-0.4-0.1-0.9-0.2-1.3-0.2
		c-0.2,0.1-0.4,0.1-0.6,0.2c-0.1,0-0.3,0-0.4,0c-0.5,0.3-1,0.5-1.5,0.9c-0.5,0.4-0.9,1-1.2,1.6c-0.2,0.4-0.3,1-0.5,1.4
		c-0.3,0.9-0.3,1.8-0.4,2.7c0,1,0.4,1.8,0.7,2.7c0.6,2.2,1.9,3.9,3.5,5.4c0.9,0.9,2,1.5,3.1,2.2c0.7,0.4,1.5,0.7,2.4,0.6
		c1.1-0.1,2.1-0.3,3.1-0.8c1.4-0.8,2.9-1.5,4.3-2.3c1.1-0.6,2.1-1.3,3.1-1.9c0.2-0.1,0.4-0.1,0.5-0.2c0.5-0.2,1.1-0.5,1.4-1.1
		c0.6-1.1,1-2.2,1.2-3.4c0.1-0.5,0.2-0.9,0.8-1c0.2,0,0.3-0.2,0.5-0.2c0,0.1,0,0.1,0,0.2c0.5,0,0.9,0.1,1.4,0.1c0.7,0,1.4-0.1,2,0
		c1.4,0.3,2.4-0.4,3.2-1.3c0.3-0.3,0.5-0.7,0.3-1.3C47,62,47,62.3,46.8,62.5c-0.8,0.9-1.6,1.6-3,1.4c-0.6-0.1-1.3,0.1-2,0.1
		c-0.8,0.1-1.4-0.3-2.1-0.6c-0.4-0.2-0.7-0.4-0.6-0.9c0.5,0.3,1,0.7,1.6,1.1c0-0.1,0.1-0.1,0.1-0.2c-0.5-0.3-1-0.6-1.4-1.1
		c-0.4-0.5-0.5-1.1-0.7-1.6c1.4-0.5,2.7-1.1,4-1.6c0.2-0.1,0.4-0.1,0.6-0.1c0.1-0.2,0.2-0.4,0.3-0.7c-0.2,0.9,0.2,1.9,0.9,2.3
		c0.9,0.6,1.7,0.1,2.5-0.5c-0.3,1-1.5,1.5-2.6,1.2l0,0c0,0.4,0.3,0.4,0.6,0.3c0.4-0.1,0.8-0.2,1.4-0.3c-0.8,0.6-1.5,0.7-2.2,0.5
		c-1-0.3-1.4-1.2-1.7-2.2c-0.3,0.7,0.1,1.1,0.4,1.5c0.9,1.2,2.1,1.1,3.4,0.7c-0.3,0.7-0.9,1.1-1.5,1.1c-1.5,0-2.5-0.4-2.9-1.4
		c1,0.8,1.7,1,2.2,0.6c-1.2,0.1-1.9-0.7-2.6-1.5c0-0.2,0.1-0.4,0.1-0.7c-0.1,0-0.2,0-0.2,0c-0.4,0.6,0,1.9,0.6,2.4
		c0.6,0.5,1.3,0.6,1.9,0.9c1.1,0.4,2.3-0.4,2.6-1.4c0.1-0.2,0.2-0.3,0.2-0.5c0.2-0.4,0.7-0.5,0.6-0.9c0-0.5,0.2-0.8,0.5-1.2
		c0.2-0.4,0.5-0.8,0.6-1.2c0.1-1,0.7-1.6,1.2-2.4c0.3,1,0.7,2,0.8,3.1c0.2,2,0.8,4,1.2,6c0.3,1.5,0.6,3.1,1,4.6
		c0.3,1.3,0.6,2.6,0.8,3.9c0.3,1.4,0.5,2.9,0.8,4.4c0.1,0.8,0.4,1.5,0.5,2.3c0.2,0.7,0.3,1.5,0.4,2.3c0.3,1.5,0.6,3,1,4.5
		c0.1,0.7,0.4,1.3,0.5,2c0.1,0.7,0.2,1.4,0.4,2c0.5,2,1.1,3.9,1.7,5.9c0.4,1.7,0.8,3.4,1.2,5.1c0.5,2.1,1,4.1,1.4,6.2
		c0.4,2.3,0.8,4.5,1.2,6.8c0.2,1.2,0.4,2.4,0.6,3.6c0.2,1.4,0.4,2.9,0.6,4.3c0.3,1.9,0.7,3.7,1.1,5.6c0.1,0.4,0.2,0.8,0.3,1.2
		c0.3,1.9,0.6,3.7,0.9,5.6c0.1,0.8,0.2,1.7,0.4,2.5c0.2,1.3,0.5,2.6,0.7,3.8c0.2,1.2,0.4,2.4,0.7,3.6c0.2,0.9,0.5,1.8,0.8,2.7
		c0.5,1.7,1.1,3.5,1.5,5.2c0.3,1.1,0.4,2.3,0.6,3.5c0,0.2-0.1,0.4-0.1,0.7c-0.8-0.5-1.6-0.9-2.3-1.4c-1.1-0.7-2.3-1-3.4-0.6
		c-0.4-0.2-0.8-0.4-1.2-0.5c-0.7-0.3-1.4-0.5-1.6-1.4c0-0.1-0.1-0.2-0.2-0.4c0.8-0.4,0.9-0.8,0.2-1.5c-0.1-0.1-0.1-0.2-0.2-0.3
		c-0.3-0.6-0.4-1.4-1.1-1.7c-0.7-0.3-1.5-0.7-2.3-0.8c-0.9-0.1-2-0.2-2.9,0c-1.1,0.2-2,0.8-2.9,1.6c-0.3,0.2-0.6,0.4-0.8,0.6
		c-0.2-0.6-0.4-1.1-0.6-1.7c-0.3-0.7-0.6-1.4-0.8-2.1c-0.5-1.7-1-3.4-1.6-5.1c-0.3-0.9-0.7-1.9-0.9-2.8c-0.5-1.9-0.8-3.8-1.3-5.7
		c-0.5-2-1.2-3.9-1.8-5.9c-0.3-0.9-0.4-1.8-0.6-2.7c-0.3-1.2-0.6-2.3-0.9-3.5c-0.1-0.5-0.1-1-0.6-1.3c0,0.2,0,0.3,0,0.4
		c0.3,1.2,0.6,2.5,0.9,3.7c0.4,1.5,0.8,3,1.2,4.4c0.2,0.8,0.3,1.6,0.6,2.4c0.4,1.3,0.8,2.6,1.1,3.8c0.7,2.6,1.5,5.1,2.2,7.7
		c0.3,1,0.7,2,1,3c0.2,0.7,0.3,1.3,0.5,2c0.4,1,0.8,2.1,1.2,3.1c0.2,0.4,0.1,0.6-0.3,0.8c-0.5,0.3-1,0.6-1.4,1
		c-0.8,0.7-1.5,1.4-2.3,2.1c-0.8,0.7-1,1.6-0.8,2.5c0.3,1.4,0.6,2.7,1,4.1c0.3,1.2,0.6,2.5,1,3.7c0.4,1.3,0.7,2.7,1.2,4
		c0.1,0.3,0,0.5-0.2,0.7c-0.6,0.4-1.3,0.9-1.9,1.4c-1.3,1-2.7,2.1-4,3.1c-0.3,0.2-0.5,0.6-0.6,0.9c-0.2,1-0.3,2.1-0.3,3.2
		c0,1.4,0.5,2.7,1,4c0.5,1.1,1.2,2.1,1.9,3.1c0.6,1,1.5,1.8,2.6,2.3c0.8,0.3,1.6,0.7,2.4,0.9c0.7,0.2,1.4,0.2,2.1,0.1
		c0.9-0.2,1.7-0.6,2.4-1.3c0.7-0.8,1.6-1.4,2.4-2.1c0.2-0.2,0.5-0.3,0.7-0.5c1.3-1.3,2.6-2.6,3.9-3.9c0.5-0.5,1-0.9,1.1-1.7
		c0.2-1.2,0.1-2.4-0.1-3.6c-0.1-0.8-0.2-1.6-0.6-2.3c-0.7-1.3-1.6-2.6-2.5-3.9c0.7-0.6,1.2-1.6,1.2-2.7c0-1.7-0.1-3.5-0.2-5.2
		c-0.1-1.4,0.5-2.6,1.1-3.8c0-0.1,0.1-0.2,0.1-0.4c-0.8,0.4-1.2,1.5-1.5,4.1c-0.5-0.9-0.1-3,0.7-4.1c0.4-0.6,0.9-1.2,1.8-1.3
		c-0.3,0.4-0.6,0.6-0.9,0.9c0.4-0.2,0.7-0.4,1-0.6c1.7-1.4,3.1-0.8,4.6,0.2c1,0.7,2.1,1.3,3.3,1.4c1.3,0.1,2.5-0.3,3.5-1.1
		c1-0.8,1.9-1.7,3-2.3c1.3-0.8,1.6-0.8,2.6,0.1c0.3,0.3,0.5,1.5,0.3,1.9c0,0.1-0.1,0.1-0.2,0.2c-0.3,0.3-0.7,0.6-1,0.9
		c-1.5,1.5-3.1,3-4.6,4.5c-0.8,0.8-1.6,1.5-2.4,2.2c-0.6,0.5-1.1,1-1.7,1.5c-0.7,0.6-1.3,1.3-2,1.8c-1.4,1.2-2.9,2.4-4.3,3.6
		c-0.4,0.3-0.8,0.7-1.2,1c-0.3,0.2-0.5,0.4-0.8,0.6c0,0,0.1,0.1,0.1,0.1c3-1.7,5.3-4.4,8.2-6.5c0.2,3.9-0.6,7.6-1.5,11.3
		c-0.9,3.8-2.6,7.2-4.5,10.5c-1.8,3.1-6.2,8.4-7.3,8.8c0.1-0.8,0.3-1.6,0.4-2.3c0.2-1.6,0.4-3.2,0.4-4.8c0-1.4-0.2-2.8-0.3-4.2
		c0-0.3,0.1-0.7-0.4-0.7c0.1,0.8,0.3,1.7,0.3,2.5c0,1.5,0,3.1-0.1,4.6c-0.1,1.4-0.3,2.9-0.4,4.3c0,0.4-0.1,0.8-0.4,1.1
		c-0.8,0.7-1.6,1.5-2.6,2c-1.2,0.8-2.5,1.4-3.8,2.1c-1.6,0.9-3.3,1.2-5,1.2c-0.6,0-1-0.1-1.4-0.6c-0.4-0.6-0.9-1.2-1.4-1.8
		c-1.2-1.8-2-3.7-2.6-5.8c-0.3-1.1-0.4-2.2-0.6-3.3c-0.1-0.5-0.2-0.9-0.3-1.4c-0.4-2.1-0.8-4.1-1.2-6.2c-0.2-1-0.7-2-1.1-3
		c-0.4-1.1-0.9-2.2-1.3-3.3c-0.6-1.7-1.2-3.4-1.9-5c-0.3-0.9-0.7-1.8-1-2.7c-0.3-0.8-0.5-1.7-0.8-2.5c-0.2-0.6-0.5-1.1-0.6-1.7
		c-0.4-1.2-0.7-2.5-1.1-3.7c-0.3-1-0.7-1.9-0.9-2.9c-0.3-1.3-0.5-2.5-0.8-3.8c-0.2-0.9-0.5-1.7-0.8-2.6c0-0.2-0.1-0.3-0.1-0.5
		c0,0.1-0.1,0.1-0.1,0.2c-0.3-0.9-0.6-1.8-0.8-2.7c-0.2-0.9-0.4-1.7-0.6-2.6c-0.4-1.4-0.8-2.8-1.2-4.2c-0.3-0.9-0.5-1.9-0.8-2.8
		c-0.6-1.8-1.3-3.6-1.9-5.5c-0.7-2.2-1.2-4.4-1.9-6.5c-0.3-0.9-0.6-1.8-0.9-2.7c-0.2-0.7-0.4-1.5-0.6-2.2c-0.5-1.5-1-3-1.4-4.5
		c-0.3-0.9-0.5-1.9-0.7-2.8c-0.3-1.3-0.7-2.7-0.9-4c-0.3-1.4-0.5-2.7-0.8-4.1c-0.4-1.6-0.8-3.2-1.2-4.8c-0.4-1.6-0.8-3.2-1.1-4.8
		c-0.4-1.6-1-3.1-1.1-4.7c0-0.6-0.3-1.2-0.6-1.7c-0.3-0.5,0-1.3-0.1-1.9c-0.3-1.6-0.8-3.2-1.1-4.9c-0.4-2-0.8-4-1.3-5.9
		c-0.3-1.4-0.8-2.7-1-4.1c-0.4-2.2-0.7-4.3-1.1-6.5c-0.4-2.1-0.8-4.3-1.1-6.4c-0.3-2.1-0.4-4.2-0.6-6.3c-0.1-1.3-0.1-2.6-0.2-3.9
		c-0.1-1.8-0.2-3.7-0.3-5.5c-0.1-1.2-0.1-2.4-0.1-3.6c0-0.2,0.2-0.4,0.2-0.6c0-0.9,0-1.9,0-2.8c0.1-1.7,0.2-3.5,0.3-5.2
		C4.9,33,5,32.1,5.1,31.1c0.1-0.9,0.2-1.8,0.3-2.7c0-0.4,0.1-0.8,0.2-1.3c0.3-1.4,0.6-2.7,0.9-4c0.3-1.3,0.5-2.6,0.9-3.9
		c0.8-2.7,1.6-5.3,2.6-8c0.7-1.9,1.6-3.8,2.5-5.7C12.7,5,13.2,4.5,13.5,4c0.4,0.5,0.7,0.8,1,1.3c1,1.8,1.9,3.6,2.8,5.4
		c0.4,0.9,0.8,1.8,1.2,2.7c0.4,1,0.7,1.9,1.1,2.9c0.4,1.1,0.7,2.2,1.1,3.2c0.3,0.8,0.6,1.5,0.9,2.3c0.3,0.9,0.5,1.8,0.8,2.7
		c0,0.1,0.2,0.2,0.3,0.3l0,0c0-0.1,0-0.3,0-0.4c-0.4-1.1-0.8-2.1-1.1-3.2c-0.3-0.9-0.5-1.7-0.9-2.6c-0.8-1.9-1-3.9-2-5.7
		c-0.4-0.8-0.7-1.6-1.1-2.4c-0.3-0.7-0.7-1.3-1-1.9c-0.5-1-1-2.1-1.6-3.1c-0.4-0.7-0.8-1.3-1.3-2c0.5,0,0.8,0,1.2,0.1
		c1.1,0.3,2.3,0.6,3.4,1c1.2,0.4,2.4,1,3.5,1.5c1,0.5,2,1,2.9,1.7c2,1.3,3.8,2.9,5.5,4.7c1.1,1.1,2.1,2.3,3,3.6
		c0.8,1,1.4,2.1,2.1,3.1c1,1.4,2.1,2.8,2.8,4.4c0.9,2.1,1.9,4,2.8,6.1c0.5,1.3,0.9,2.7,1.3,4c0.6,2,1.3,4,1.9,6.1
		c0.4,1.3,0.9,2.6,1.4,3.9c0.3,0.7,0.6,1.4,0.9,2.1c0.3,0.7,0.6,1.5,1,2.1c0.3,0.6,0.3,0.9-0.4,1c-0.6,0.1-1.1,0.1-1.7,0.2
		c-1.6,0.1-3.1,0.3-4.7,0.4c0.3-1.1,0.6-2.1,1-3c0.5-1.4,0.8-2.9,0.7-4.4C42,41,41.6,40,40.7,39.4c-0.6-0.5-1.3-0.8-1.9-1.1
		c0,0-0.1,0.1-0.1,0.1c0.3,0.2,0.5,0.6,0.8,0.6c0.6,0.1,0.9,0.5,1.3,0.9c1.1,0.9,1.2,2.2,1.2,3.4c0,0.2,0.1,0.5,0,0.7
		c-0.2,0.7-0.4,1.3-0.6,2c-0.4,1.1-0.7,2.2-1.1,3.3c-0.8-0.1-1.6,0-2.3-0.2c-0.6-0.1-0.9,0-1.2,0.5c-0.3,0.6-0.7,1.3-1,2
		c-0.1,0.3,0.1,0.6,0.2,1c0.2,0,0.3,0,0.4,0c0.3,0.9-0.4,1.3-0.7,1.9c-0.2,0.4-0.5,0.4-0.8,0.1c-0.1-0.1-0.2-0.1-0.3-0.2
		c-0.1-0.1-0.1-0.3,0-0.4c0.3-0.6,0.1-1.8-0.5-2.2c0.4,1.8,0.4,1.9,0.1,2.3c-0.3-0.2-0.6-0.4-0.9-0.6c-0.9-0.6-2-0.6-3-0.8
		c-0.4,0-0.8-0.1-1.1,0c-0.7,0.3-1.4,0.6-2,1c-0.5,0.2-1,0.4-1.5,0.6c-0.6-1-0.8-2.1-0.9-3.2c-0.3,1.2,0.3,2.3,0.8,3.4
		c-0.5,0.2-1,0.4-1.5,0.7c-0.1-0.9-0.1-1.8-0.2-2.7c-0.1,0-0.1,0-0.2,0c0.1,0.9,0.2,1.9,0.2,2.8c-0.6,0.3-1.2,0.6-1.8,0.8
		c-0.6,0.3-1.3,0.6-1.9,0.9c0,0,0,0.1,0.1,0.2c0.1-0.1,0.2-0.1,0.3-0.2c1-0.4,2-0.8,3-1.3c0.7-0.3,1.4-0.8,2.1-1.1
		c1.1-0.5,2.3-1,3.4-1.6c0.5-0.3,1-0.2,1.6-0.1c0.2,0,0.4,0.1,0.7,0.1c0.9,0,1.7,0.5,2.4,1c1.2,0.7,2.1,1.9,2.9,3
		c1,1.3,1.9,2.6,2.1,4.2c0.1,0.9,0.3,1.8,0.2,2.6c-0.1,1.6-0.6,3-1.4,4.4c-0.2,0.3-0.4,0.6-0.6,0.8c-0.6,0.4-1.3,0.8-1.9,1.2
		c-0.8,0.5-1.5,0.9-2.3,1.4c-1.2,0.6-2.4,1.3-3.6,1.9c-0.2,0.1-0.5,0.1-0.8,0.2c-1,0.9-2.4,0.9-3.6,0.8c-1-0.1-2-0.5-2.8-1.1
		c-1.2-0.9-2.3-1.8-3.3-3c-0.9-1.2-1.8-2.4-2.2-3.9c-0.2-0.7-0.5-1.4-0.5-2.2c-0.2-1.6,0.3-3.1,0.9-4.6c0.5-1.2,2.1-2.1,3.4-2
		c0.2,0,0.5,0.1,0.7,0.2c0.7,0.2,1.5,0.3,2.2,0.6c0.6,0.2,1.1,0.7,1.7,1c0.6,0.2,0.7,0.8,1.2,1.2c0.7,0.6,1.1,1.5,1.6,2.2
		C27.7,63.2,27.9,63.2,28.1,63.4z M12.1,5c0.1,0,0.1,0,0.2,0.1c-0.1,0.3-0.2,0.5-0.3,0.8c-0.7,1.4-1.4,2.7-2.1,4.2
		c-0.7,1.6-1.3,3.2-1.8,4.9c-0.4,1.3-0.9,2.6-1.2,4c-0.5,2.3-1.3,4.4-1.6,6.8c-0.2,1.6-0.4,3.2-0.6,4.8c-0.1,0.5,0,1.1,0,1.6
		c-0.1,1.3-0.3,2.6-0.4,4c-0.1,0.6,0.1,1.3,0,1.9C4,39.5,4.1,41,4,42.5c0,1.1,0,2.3,0.1,3.4c0,1,0,2,0,3c0.1,1.4,0.2,2.7,0.3,4.1
		c0.1,1.4,0.2,2.9,0.3,4.3c0.1,1.2,0.1,2.3,0.2,3.5c0.1,0.8,0.1,1.7,0.2,2.5c0.4,2.2,0.9,4.3,1.3,6.5c0.4,2.4,0.9,4.8,1.5,7.1
		c0.3,1.1,0.6,2.3,0.8,3.4c0.3,1.1,0.5,2.2,0.7,3.3c0.3,1.4,0.7,2.9,1,4.3c0.4,1.7,0.7,3.3,1,5c0.1,0.5,0.1,1.1,0.2,1.7
		c0.3,1.2,0.6,2.5,0.9,3.7c0.2,0.9,0.5,1.8,0.7,2.7c0.5,2,1,4,1.5,5.9c0.2,0.7,0.4,1.3,0.6,2c0.3,1.6,0.6,3.2,1,4.8
		c0.2,1,0.7,2,0.8,3c0.3,2.1,1.1,4,1.6,6c0.3,1.4,0.9,2.8,1.3,4.2c0.3,0.9,0.5,1.8,0.8,2.7c0.2,0.8,0.5,1.5,0.7,2.3
		c0.6,1.9,1.1,3.9,1.7,5.8c0.6,2,1.3,3.9,1.9,5.8c0.4,1.2,0.7,2.4,1,3.6c0.1,0.4,0.2,0.8,0.3,1.2c0.3,1.3,0.6,2.7,1,4
		c0.3,1,0.6,1.9,0.8,2.9c0.3,1.2,0.6,2.5,0.9,3.7c0.4,1.4,0.8,2.7,1.2,4.1c0.2,0.7,0.3,1.5,0.6,2.2c0.9,2.5,1.8,5,2.8,7.4
		c0.6,1.6,1.3,3.2,1.9,4.8c0.6,1.5,1.2,2.9,1.8,4.4c0.1,0.4,0.1,0.8,0.2,1.2c0.4,1.5,0.9,3,1.2,4.5c0.4,1.8,0.7,3.7,1,5.5
		c0.2,1.6,0.6,3,1.2,4.5c0.4,0.9,0.9,1.8,1.5,2.6c0.5,0.8,1.1,1.6,1.7,2.3c-0.7-0.4-1.4-0.8-2-1.3c-0.4-0.3-0.8-0.6-1-1.1
		c-0.9-1.5-1.5-3.1-1.8-4.8c-0.2-1.3-0.4-2.6-0.7-3.9c-0.2-1.2-0.5-2.4-0.7-3.6c-0.3-2-0.8-4-1.5-5.9c-0.4-1-0.9-2-1.3-3.1
		c-0.6-1.6-1-3.2-1.6-4.8c-0.4-1.1-0.9-2.1-1.3-3.1c-0.4-1-0.6-2-0.9-3c-0.6-1.8-1.6-3.5-2-5.5c-0.2-1.1-0.7-2.2-1-3.3
		c-0.5-1.9-1-3.7-1.6-5.6c-0.2-0.8-0.5-1.5-0.7-2.3c-0.3-1-0.7-1.9-1-2.9c-0.1-0.4-0.2-0.9-0.3-1.3c-0.3-1-0.6-1.9-0.9-2.9
		c-0.5-1.7-0.9-3.4-1.4-5.1c-0.2-0.8-0.6-1.6-0.9-2.3c-0.2-0.6-0.4-1.3-0.6-1.9c-0.3-0.9-0.5-1.8-0.7-2.8c-0.2-0.8-0.5-1.5-0.7-2.2
		c-0.2-0.6-0.2-1.2-0.4-1.7c-0.5-1-0.7-2.1-1-3.2c-0.3-0.9-0.7-1.9-1-2.8c-0.4-1.2-0.7-2.5-1.1-3.7c-0.3-1.2-0.7-2.4-1-3.6
		c-0.3-1.4-0.5-2.8-0.8-4.2c-0.5-2.1-1-4.2-1.5-6.3c-0.1-0.6-0.3-1.3-0.4-1.9c-0.5-1.9-1-3.7-1.5-5.6c-0.2-0.8-0.2-1.6-0.4-2.3
		c-0.4-1.8-0.9-3.6-1.3-5.4c-0.2-1-0.4-2-0.6-3c-0.3-1.4-0.6-2.9-0.9-4.3c-0.2-1-0.3-2-0.6-3c-0.2-1-0.5-2-0.8-3
		c-0.3-1.1-0.6-2.3-0.8-3.4c-0.3-1.5-0.5-3.1-0.9-4.6c-0.5-2.3-0.5-4.6-1-6.9c-0.4-1.8-0.4-3.6-0.6-5.5c-0.2-1.9-0.3-3.8-0.4-5.7
		c-0.1-2.2-0.1-4.4-0.1-6.6c0-0.9,0-1.8,0-2.7c0.1-1.3,0.2-2.6,0.3-3.9c0-0.7,0-1.3,0.1-2C3.5,33,3.8,31.5,4,30
		c0.2-1.8,0.4-3.5,0.7-5.3c0.4-2.6,1.3-5.1,2.2-7.6c0.6-1.7,1.2-3.5,1.8-5.2c0.2-0.6,0.4-1.1,0.7-1.7c0.4-0.8,0.8-1.5,1.2-2.3
		C11.1,7,11.6,6,12.1,5z M55.3,187c0.2-1,0.5-1.9,0.5-2.9c0-1.6-0.5-3.1-1-4.6c-0.1-0.2-0.2-0.3-0.3-0.5c-1-1.4-2.3-2.6-3.7-3.6
		c-0.7-0.5-1.5-0.9-2.3-1.4c-0.5-0.3-0.9-0.6-1.5-0.7c-0.5-0.1-1.1-0.1-1.8-0.2c1.3-1,2.6-1.9,3.9-2.9c1.1-0.8,2.4-1.5,3.5-2.3
		c0.7-0.5,1.3-0.8,2.2-0.6c1.4,0.3,2.8,0.6,4.1,1.4c1.3,0.8,2.2,1.9,3,3.2c0.6,0.9,0.9,2,1.1,3c0.3,1.4,0.5,2.8,0.1,4.2
		c0,0.2,0,0.4-0.2,0.5c-0.9,0.9-1.7,1.7-2.6,2.5c-1,1-2,2-3.1,3C56.7,185.8,56,186.4,55.3,187z M46.3,173.4c0.4,0.1,0.9,0.1,1.3,0.3
		c1.2,0.7,2.5,1.5,3.7,2.4c0.8,0.6,1.3,1.5,2.1,2.1c1,0.7,1.4,1.8,1.7,2.9c0.2,0.7,0.2,1.4,0.3,2.1c0.2,1.4,0,2.7-0.6,4
		c-0.2,0.4-0.5,0.8-0.9,0.9c-0.9,0.4-1.8,0.3-2.7,0.1c-1.5-0.4-2.8-1.2-3.8-2.2c-1.3-1.3-2.4-2.7-3-4.5c-0.4-1.3-0.9-2.6-0.8-4.1
		c0.1-0.9,0.2-1.8,0.3-2.6c0-0.1,0.1-0.3,0.2-0.4C44.7,173.7,45.4,173.2,46.3,173.4z M54.4,166.7c-0.7,0.3-1.4,0.6-2,0.9
		c-0.6,0.3-1.2,0.7-1.8,1.1c-0.2-0.5-0.3-0.9-0.4-1.3c-0.3-0.9-0.5-1.8-0.8-2.7c-0.4-1.3-0.8-2.6-1.1-3.9c-0.3-1-0.5-2-0.7-3.1
		c-0.3-1.1-0.3-2.3,0.6-3.2c0.8-0.8,1.6-1.5,2.4-2.2c1.2-1,2.5-1.9,3.7-2.8c0.9-0.7,1.9-1.2,3-1c1,0.1,2.1,0.4,3.1,0.7
		c0.4,0.1,0.7,0.4,1,0.5c0,0.1,0,0.1-0.1,0.2c-1.2-0.2-1.9,0.7-2.8,1.2c-0.8,0.4-1.4,1.1-2.1,1.6c-1.1,0.8-2.2,1.6-3.2,2.5
		c-1,0.8-1.2,1.8-0.9,2.9c0.3,1.4,0.7,2.8,1,4.2c0.1,0.5,0.1,0.9,0.2,1.4C53.7,164.9,54.1,165.9,54.4,166.7z M81.6,156.4
		c0.3-1.7-0.8-3.6-3-2.8c0.2-0.5,0.2-0.9,0.5-1.2c0.1-0.1,0.6,0.1,0.9,0.2c0.4,0.2,0.7,0.4,1,0.6c0.3,0.3,0.6,0.6,0.9,1
		c0.1-0.2,0.1-0.3,0.1-0.3c-0.6-1.1-1.7-1.6-2.9-1.9c-0.5-0.1-0.9,0.1-1.2,0.5c-0.5,0.5-0.2,1.1-0.1,1.6c-1.1,0.9-2.3,1.8-3.5,2.7
		c-0.2-0.5-0.4-1-0.6-1.4c-0.2-0.8-0.5-1.6-0.6-2.5c0-0.7,0.1-1.4,0.5-2c0.3-0.5,0.4-1.1,0.8-1.4c0.7-0.7,1.6-1,2.5-1
		c1.4,0,2.7,0.3,3.9,1.2c0.9,0.7,1.8,1.5,2.6,2.3c0.8,0.9,1.2,2,1.6,3.2c0.4,1.2,0.4,2.4,0.5,3.6c0,0.7-0.3,1.4-0.4,2.1
		c-0.1,0.5-0.5,0.7-0.9,0.9c-1.1,0.5-2.1,0.3-3.2,0.1c-1.2-0.3-2.4-0.7-3.4-1.5c0.3-0.3,0.5-0.5,0.7-0.8c0.9-0.9,1.8-1.7,2.8-2.5
		c0.1-0.1,0.4-0.2,0.5-0.3c0.6-0.2,1.2-0.8,0.7-1.7C82,156.2,82,156.2,81.6,156.4z M78.2,154.1c-0.2-1.2-0.1-1.5,0.4-1.6
		c0,0.3,0,0.7-0.1,1.1C78.5,153.7,78.3,153.8,78.2,154.1z M61.4,166.2c-0.4-0.5-0.4-1.2,0-1.7C61.4,165.1,61.4,165.6,61.4,166.2z
		 M61.1,153c0,0,0.1-0.1,0.1-0.1c0.2,0,0.5,0,0.7,0c0,0.3,0,0.5,0,0.8C61.6,153.4,61.4,153.2,61.1,153z M39.3,64.1
		c0-0.3-0.1-0.5-0.1-0.8c0.2,0.1,0.3,0.2,0.4,0.3c0.1,0.1,0.2,0.1,0.4,0.2C39.7,63.9,39.5,64,39.3,64.1z M61.4,151.8
		c0.1,0.2,0.2,0.5,0.2,0.7c0,0.1,0,0.2,0,0.3c-0.1,0-0.2,0-0.3,0C61,152.5,61.1,152.1,61.4,151.8z"/>
	<path class="st0" d="M59.3,37.3c-0.7,0.2-1.3,0.5-2,0.7c-0.6,0.3-1.3,0.6-1.9,0.8c-0.2,0.1-0.4,0.2-0.6,0.3c-1,0.6-2,1.1-3,1.8
		c-0.4,0.3-0.7,0.8-1,1.4c-0.7,1.5-1,3.2-0.7,4.9c0,0.2-0.4,0.6,0.2,0.7l0,0c0-0.5-0.1-1-0.1-1.5c0-1.1,0.4-2.2,0.7-3.3
		c0.2-0.9,0.8-1.7,1.5-2.2c0.5-0.4,1.1-0.9,2-0.9c0.8,0,1.6-0.3,2.4-0.1c1.2,0.2,2.3,0.9,3.2,1.7c0.8,0.8,1.5,1.6,2.1,2.5
		c0.9,1.6,1.4,3.2,1.4,5.1c0,0.4,0,0.8,0,1.2c0.1,0,0.1,0,0.2,0c0-0.1,0-0.2,0-0.2c0.1-1.6-0.1-3.1-0.6-4.6
		c-0.5-1.5-1.5-2.7-2.6-3.8c-0.7-0.6-1.5-1.2-2.3-1.6c-0.8-0.4-1.7-0.8-2.6-0.5c-0.1,0-0.3,0-0.5-0.1c1.1-0.5,2-1,3-1.5
		C58.4,37.8,58.8,37.5,59.3,37.3L59.3,37.3z"/>
	<path class="st0" d="M60.4,36.7c-0.5,0-0.9,0-1.2,0.5l0,0C59.8,37.3,60.1,37.1,60.4,36.7L60.4,36.7z"/>
	<path class="st0" d="M49,95.3c-0.6,0.4-1.3,0.9-1.9,1.3c-1.3,0.8-2.6,1.6-3.9,2.3c-0.6,0.3-1.2,0.6-1.7,0.9
		c-0.7,0.4-1.4,0.8-2.1,1.2c-0.7-1.5-1-3.1-1.3-4.7c-0.2-1-0.5-2-0.7-3.1c-0.1-0.7-0.2-1.4-0.3-2c-0.3-1.5-0.7-3-1.1-4.5
		c-0.2-0.8-0.5-1.6-0.7-2.4c-0.2-0.9-0.4-1.9-0.6-2.9c0-0.1,0-0.1-0.2-0.2c0,0.1-0.1,0.2-0.1,0.3c0.4,1.6,0.8,3.2,1.2,4.9
		c0.5,2,0.9,3.9,1.3,5.9c0.3,1.1,0.5,2.2,0.8,3.4c0.4,1.7,0.8,3.5,1.1,5.2c0.4,1.9,0.8,3.7,1.1,5.6c0.2,1.1,0.5,2.3,0.7,3.4
		c0.2,0.8,0.4,1.7,0.6,2.5c0.1,0.4,0.1,0.8,0.2,1.2c0.2,1.1,0.5,2.1,0.8,3.2c0.2,0.8,0.4,1.6,0.6,2.5c0,0.2,0.1,0.3,0.3,0.4
		c-1.4-6.1-2.5-12.2-3.7-18.2c1.7-0.9,3.4-1.8,5.1-2.7c1.5-0.9,3-1.8,4.5-2.7c0.2-0.1,0.3-0.3,0.4-0.4c0-0.1,0-0.2,0-0.2
		C49.2,95.3,49.1,95.3,49,95.3C49,95.4,49,95.3,49,95.3z"/>
	<path class="st0" d="M38.3,43.1c-0.4-0.1-0.7-0.2-1-0.4c-0.7-0.3-1.2-0.2-1.6,0.5c-0.2,0.4-0.4,0.9-0.6,1.3c0.1,0,0.1,0.1,0.2,0.1
		c0.2-0.4,0.4-0.8,0.7-1.2c0.3-0.5,0.7-0.6,1.2-0.4c0.2,0.1,0.3,0.1,0.5,0.2c0.6,0.1,1,0.4,1,1c-0.3,0.1-0.6,0.1-0.9,0.3
		c-0.3,0.2-0.5,0.5-0.6,0.8c-0.2,0.5,0,1.1,0.5,1.4c-0.4,0-0.7,0-1.2,0c0.1,0.1,0.2,0.2,0.3,0.2c-0.7,0.8-1,0.7-1.4-0.4
		c0.4,0,0.8,0,1.3,0c-0.1-0.5-0.2-0.9-0.2-1.3c-0.1,0-0.2,0-0.3,0c0,0.4,0.1,0.7,0.1,1.1c-0.3-0.1-0.7-0.2-1.1-0.3
		c-0.1,0-0.1-0.1-0.1-0.2c-0.3-1.4-0.1-2.7,0.8-3.8c0.3-0.4,0.6-0.7,1-1.1c-0.3,0.1-0.5,0.1-0.7,0.3c-1,1-1.6,2.2-1.6,3.6
		c0,0.7,0.3,1.4,0.6,2c0.2,0.5,0.5,0.9,0.8,1.3c0.3,0.4,1.3,0.6,1.8,0.3c0.7-0.3,1.2-0.9,1.4-1.6c0.4-1.3,0.4-2.7-0.1-4
		c-0.3-0.9-0.9-1.6-2-1.7C37.9,41.4,38.1,42.2,38.3,43.1z M36.2,47.8c0.2-0.3,0.5-0.5,0.7-0.8c0.1-0.1,0.1-0.2,0.2-0.2
		c1.1,0.2,1.1-1,1.7-1.4c0-0.6,0-1.2-0.1-1.8c0-0.3-0.1-0.6-0.2-0.9c0.7,0.5,0.5,1.2,0.6,1.8c0.2,1.3-0.2,2.4-1.2,3.2
		C37.4,48.2,36.7,48.2,36.2,47.8z M37.4,46c-0.1-0.6,0.2-1.1,0.8-1.4C38.5,45.2,38.2,45.7,37.4,46z"/>
	<path class="st0" d="M34.7,35.7c0.1,0.2,0.1,0.2,0.1,0.3c-0.6,0.2-1.2,0.4-1.9,0.6c0-0.1-0.1-0.1-0.1-0.3c-2.1,1-3.6,2.4-4.3,4.6
		c0,0.1-0.1,0.2-0.1,0.3c0.1,0.8-0.3,1.3-0.9,1.7c-0.7,0.6-1,1.4-1.3,2.2c-0.5,1.2-0.1,2.4,0.2,3.6c0.1,0.2,0.2,0.3,0.4,0.4
		c-0.1-0.3-0.2-0.5-0.3-0.8c-0.3-1.2-0.6-2.4,0.1-3.6c0.4-0.7,1-1.3,1.5-1.9c0.2-0.3,0.5-0.6,0.6-0.9c0.3-1,0.7-1.9,1.4-2.7
		c1.1-1.3,2.4-2.1,4-2.6c1.1-0.4,2.2-0.3,3.2,0.7c0.3,0.3,0.6,0.5,1,0.7C37.5,36.7,36.1,36.3,34.7,35.7z"/>
	<path class="st0" d="M21.8,47.6c-0.5-0.8-0.9-1.7-1.4-2.5c-0.6-0.9-0.7-1.8-0.9-2.8c-0.2-1,0.3-1.8,0.9-2.6
		c0.5-0.6,0.9-1.4,1.2-2.1c0.5-1.8,1.7-3,3.4-3.7c0.9-0.4,1.8-0.6,2.7-0.6c0.9,0,1.8,0.4,2.6,0.8c0.2,0.1,0.5,0.2,0.8,0.3
		c0,0,0-0.1,0.1-0.1c-0.2-0.2-0.5-0.3-0.8-0.5c-0.8-0.4-1.5-0.9-2.4-0.9c-0.7,0-1.3,0.1-2,0.2c-0.5,0.1-0.8,0.2-0.7-0.5
		c0-0.1,0-0.2-0.1-0.2c0,0-0.1,0-0.2,0c0,0.3,0,0.6,0,0.9c-0.6,0.3-1.2,0.6-1.8,1c-1,0.7-1.6,1.7-1.9,2.8c-0.3,1-0.8,1.9-1.5,2.7
		c-0.9,1.1-1.1,2.3-0.7,3.6c0.2,0.7,0.5,1.3,0.8,1.9c0.3,0.6,0.6,1.2,1,1.7C21.2,47.2,21.5,47.4,21.8,47.6
		C21.8,47.6,21.8,47.6,21.8,47.6z"/>
	<path class="st0" d="M49,95.4c-0.2-1-0.4-2-0.6-3.1c-0.2-1.2-0.5-2.4-0.8-3.7c-0.4-1.8-0.8-3.6-1.2-5.4c-0.3-1.4-0.6-2.8-0.9-4.3
		c-0.3-1.2-0.6-2.4-0.9-3.6c0-0.2,0-0.4,0-0.7c-0.8,0.5-1.5,0.9-2.2,1.4c0,0,0,0.1,0.1,0.1c0.6-0.3,1.2-0.6,1.8-0.9
		c0.2,1.1,0.5,2.1,0.7,3.1c0.4,1.8,0.8,3.6,1.2,5.3c0.5,2.2,1,4.5,1.5,6.7c0.3,1.5,0.6,3,1,4.5C48.7,95,48.9,95.2,49,95.4
		C49,95.3,49,95.4,49,95.4z"/>
	<path class="st0" d="M40.9,150.6c0-0.1,0-0.3,0-0.4c0,0-0.1,0-0.1,0c0,0.4-0.1,0.7-0.1,1.1c0,0,0.1,0,0.2,0
		c0.1-0.1,0.3-0.2,0.4-0.4c0,0.6-0.1,0.7-0.5,1c-0.4,0.2-0.8,0.5-1,0.8c-0.2,0.3-0.3,0.6-0.4,1c0,0.2,0.1,0.5,0.2,0.5
		c0.2,0.1,0.4,0,0.6-0.1c0.8-0.4,0.9-1.2,1.2-1.9c0.1-0.2,0.1-0.4,0.2-0.7c0.2,0.5,0.4,0.6,0.8,0.4c0.3-0.2,0.5-0.5,0.8-0.7
		c0,0,0,0,0,0c0.8-0.1,0.6-0.7,0.7-1.3c0.1-0.4,0.4-0.8,0.5-1.3c0.1-0.1,0.1-0.2,0.2-0.4c-0.7,0-1.1,0.9-1.1,2.3
		c-0.2-0.2-0.4-0.4-0.6-0.8c-0.3,0.2-0.6,0.4-0.9,0.6c0.1-0.4,0.2-0.8,0.2-1.3c-0.1,0-0.2-0.1-0.2-0.1
		C41.6,149.5,41.3,150,40.9,150.6C41,150.6,40.9,150.6,40.9,150.6z M39.7,153.7c-0.3-1,0.7-1.1,1.1-1.6
		C40.7,153.2,40.4,153.6,39.7,153.7z M42.1,150.6c0.4,0.5,0.3,0.8-0.4,1C41.8,151.2,41.9,150.9,42.1,150.6z"/>
	<path class="st0" d="M43.5,96.8c0.6-0.2,1.1-0.5,1.7-0.7c-0.1-0.4,0.3-0.3,0.4-0.4c0.5-0.3,1.1-0.6,1.6-0.9
		c0.1-0.1,0.3-0.1,0.6-0.1c-0.1-0.4-0.3-0.8-0.4-1.1c-0.4,0.1-0.6,0.3-0.9,0.3c-0.4,0-0.5,0.2-0.6,0.5c0,0.1-0.2,0.3-0.2,0.4
		c0,0-0.1-0.1-0.1-0.1c0-0.1,0.1-0.2,0.1-0.4c0,0-0.1,0-0.1,0c-0.1,0.1-0.4,0.1-0.4,0.2C45.2,95,45,95,44.6,95.1
		C44,95.3,43.5,95.7,43,96c0.2,0.3,0.3,0.5,0.4,0.7C43.5,96.7,43.5,96.8,43.5,96.8z"/>
	<path class="st0" d="M34.5,80.7c2.8-1,5.1-2.9,7.7-4.2c0-0.1-0.1-0.1-0.1-0.2c-2.4,1.4-4.8,2.7-7.3,4.2c-0.9-2.8-1.2-5.6-1.9-8.4
		c-0.5,0.2-0.3,0.5-0.2,0.8c0.3,1.5,0.7,3.1,1,4.6c0.2,0.7,0.4,1.4,0.6,2.1c0.1,0.3,0.1,0.5,0.2,0.8C34.5,80.4,34.5,80.6,34.5,80.7z
		"/>
	<path class="st0" d="M39.6,88.8c0-0.1,0-0.3-0.1-0.4c-0.7-0.4-0.6-1.1-0.6-1.7c-0.1-1.2,0.1-2.4,0.7-3.5c0.2-0.4,0.4-0.8,0.7-1.2
		c0.2-0.2,0.4-0.4,0.7-0.5c1-0.3,2.2,0,2.7,1.3c0.1,0.4,0.3,0.8,0.4,1.3c0.1,0.4,0.2,0.8,0.4,1.1c-0.1-0.5-0.1-1-0.2-1.5
		c-0.2-0.8-0.4-1.6-1.1-2.1c-1.1-0.8-2.5-0.4-3.2,0.5c-0.8,1.1-1.3,2.4-1.3,3.8c0,0.8-0.2,1.8,0.4,2.6c0.1,0.2,0.3,0.4,0.5,0.5
		C39.5,88.8,39.6,88.8,39.6,88.8z"/>
	<path class="st0" d="M40.7,148c-0.3,0.1-0.5,0.1-0.7,0.2c0-0.2-0.1-0.5-0.1-0.7c-0.5,0.1-0.6,0.3-0.3,1.1c-0.1-0.1-0.2-0.3-0.4-0.4
		c-0.6,0-0.5,0.8-1.1,1c-0.4,0.1-0.2,1-0.9,1.2c0.2,0.3,0.4,0.5,0.6,0.7c0.2-0.3,0.4-0.6,0.6-0.9c0,0,0.1,0,0.1,0.1
		c-0.1-0.1-0.1-0.2-0.2-0.3c0.4,0.1,0.6,0,0.7-0.5c0-0.2,0.3-0.3,0.5-0.4c0.2-0.1,0.3-0.3,0.5-0.4C40.2,148.4,40.4,148.3,40.7,148z"
		/>
	<path class="st0" d="M40.2,98c0.1,0.2,0.1,0.3,0.2,0.4c0.1,0.2,0.3,0.3,0.4,0.4c0-0.2,0.1-0.4,0.1-0.5c0.1,0,0.3,0,0.5-0.1
		c0.3-0.2,0.8-0.2,1-0.6c0.1-0.3,0.2-0.3,0.1-0.6c-0.1-0.2-0.4-0.1-0.4-0.1c-0.6-0.2-0.7,0.3-0.9,0.6c-0.1-0.1-0.2-0.1-0.3-0.2
		c0,0.2-0.1,0.3-0.1,0.5c-0.4-0.1-0.8-0.3-1.2,0.1c-0.3,0.3-0.2,0.7,0,0.9c0.1,0.1,0.4,0.1,0.7,0.2c0,0,0.1-0.1,0.1-0.2
		c0-0.1-0.1-0.1-0.1-0.2C39.8,98.6,39.8,98.4,40.2,98z"/>
	<path class="st0" d="M46.2,146.5c0.2,0.1,0.3,0.1,0.4-0.3c0-0.3,0.1-0.7,0.2-1c-0.3,0.1-0.6,0.2-0.8,0.3c-0.2-0.1-0.4-0.2-0.7-0.4
		c-0.1,0.3-0.3,0.5-0.4,0.7c-0.2-0.2-0.4-0.5-0.5-0.7c-0.4,0.3-0.5,0.7-0.3,1.1c0.2,0.3,0.5,0.2,1.1-0.2c0.4,0.6,0.5,0.6,1.1-0.3
		C46.3,146,46.2,146.2,46.2,146.5z"/>
	<path class="st0" d="M44,92.8c-0.4,0.3-1.9,0.8-2.2,0.5c-0.3-0.3-0.4-0.7-0.5-1.1c-0.2-0.6-0.4-1.1-0.9-1.5c0,0.2,0,0.3,0.1,0.4
		c-0.6-0.2-0.6-0.6-0.7-1c0.4,0,0.7,0,1.1,0c-0.5-0.4-1.4,0.2-1.4-0.9c0,0-0.1,0-0.2,0c0,0.2-0.1,0.5,0,0.6c0.3,0.3,0.2,0.8,0.4,1.1
		c0.2,0.2,0.3,0.5,0.5,0.5c0.4,0,0.5,0.3,0.6,0.6c0.2,0.5,0.3,1,0.6,1.4c0.1,0.2,0.4,0.4,0.5,0.3c0.6-0.1,1.2-0.3,1.7-0.4
		C43.7,93.2,43.8,93,44,92.8z"/>
	<path class="st0" d="M29.4,45.8c-0.2,0-0.4-0.1-0.5,0c-0.1,0.1-0.2,0.3-0.2,0.5c0.1,0.6,0.3,1.2,0.5,1.8c0.5,1.5,1.4,2.8,2.7,3.8
		c0.1,0.1,0.3,0.1,0.5,0.1c-1.6-1.4-2.8-3.1-3.4-5.1c-0.2-0.5,0-0.8,0.4-0.9C29.4,45.9,29.4,45.9,29.4,45.8z"/>
	<path class="st0" d="M43.5,89c0,0.2,0,0.4,0.1,0.6c0.1,0.4,0.1,0.4-0.3,0.4c0,0-0.1,0-0.1,0c-0.4,0.2-0.8,0.5-1.2,0.7
		c-0.1,0.1-0.2,0.3-0.4,0.4c-0.1-0.3-0.2-0.6-0.4-0.9c0,0-0.1,0-0.1,0.1c0,0.1,0,0.1,0,0.2c0.1,0.3,0.1,0.6,0.2,0.9
		c0.3-0.1,0.5-0.1,0.8-0.3c0.6-0.3,1.1-0.6,1.7-1c0.1-0.1,0.1-0.3,0.1-0.5c0-0.2-0.2-0.4-0.3-0.6C43.6,89.1,43.6,89.1,43.5,89z"/>
	<path class="st0" d="M39.6,87.3c0.4-0.3,0.6-0.9,1.1-0.7c0.1,0,0.2,0.2,0.2,0.4c-0.3,0-0.5,0.1-0.7,0.1c0.1,0.1,0.2,0.2,0.4,0.3
		c-0.1,0.2-0.1,0.5-0.2,0.8c-0.5,0.2-0.5-0.4-0.9-0.6c0.1,0.2,0.1,0.4,0.3,0.6c0.1,0.1,0.4,0.3,0.5,0.3c0.1,0,0.3-0.3,0.4-0.4
		c0.1-0.3,0.2-0.6,0.3-0.9c0.1-0.2,0.2-0.4,0.1-0.5c-0.2-0.2-0.4-0.4-0.7-0.4C40,86.2,39.6,86.8,39.6,87.3z"/>
	<path class="st0" d="M43.8,85.7c0-0.1,0.1-0.2,0.1-0.3c0-0.4-0.2-0.5-0.6-0.4c-0.7,0.2-1.1,0.7-0.9,1.2c0,0.1,0.2,0.3,0.3,0.4
		c0,0,0.1,0,0.2,0c0.3,0,0.5,0.5,0.8,0C43.8,86.3,43.8,86,43.8,85.7C43.8,85.7,43.8,85.7,43.8,85.7z M42.4,86.1
		c0.2-0.3,0.3-0.5,0.5-0.7c0.1-0.1,0.4-0.1,0.6-0.2c0,0.3,0.1,0.6,0.1,0.9c0,0.1-0.1,0.2-0.1,0.4c-0.1-0.1-0.2-0.2-0.4-0.2
		C42.9,86.1,42.7,86.1,42.4,86.1z"/>
	<path class="st0" d="M31,43.8c0.5-1.6,0.4-3.3,1.7-4.5C31.7,39.6,30.6,42.4,31,43.8z"/>
	<path class="st0" d="M43.6,145.5c-0.4,0-0.6,0-0.9,0.1c0.1,0.3,0.2,0.5,0.3,0.7c0,0-0.1,0-0.1,0.1c-0.1-0.2-0.3-0.4-0.4-0.7
		c-0.4,0.3-0.3,0.7-0.1,1c0,0.1,0.4,0,0.7,0c0.6,0.1,0.6-0.3,0.5-0.7C43.3,145.9,43.5,145.8,43.6,145.5z"/>
	<path class="st0" d="M21.8,47.6c0.1,0.3,0.2,0.6,0.4,0.9c0.6,0.8,0.8,1.8,0.9,2.7c0,0.3,0.1,0.5,0.2,0.7
		C23.7,51,22.8,48.5,21.8,47.6C21.8,47.6,21.8,47.6,21.8,47.6z"/>
	<path class="st0" d="M39.7,60.6c-0.3,0.5-0.3,0.8,0.2,1.2c0.6,0.4,1.1,0.8,1.7,1.3c0.1,0.1,0.3,0.2,0.5,0.2c0,0,0.1-0.1,0.1-0.1
		c-0.5-0.4-1-0.9-1.6-1.2C40.1,61.6,39.7,61.3,39.7,60.6z"/>
	<path class="st0" d="M43.9,153.2c0.1,0,0.3,0,0.4-0.1c0.3-0.1,0.6-0.3,1-0.4c0.2-0.1,0.4-0.3,0.5-0.5c0.1-0.1,0-0.2,0.1-0.3l0,0
		c-0.4-0.3-0.6-0.2-0.8,0.2c0,0.2-0.2,0.4-0.2,0.4c-0.2,0-0.3-0.1-0.6-0.3C44.2,152.5,44,152.9,43.9,153.2
		C43.9,153.2,43.9,153.2,43.9,153.2z"/>
	<path class="st0" d="M37.6,151.9c0-0.4,0-0.8-0.4-0.8c-0.4,0-0.6,0.2-0.6,0.6c0,0.3,0.1,0.7,0.6,0.7
		C37.5,152.4,37.6,152.2,37.6,151.9z"/>
	<path class="st0" d="M42.2,147c-0.2-0.3-0.4-0.5-0.5-0.7c-0.3,0.1-0.9-0.2-1,0.4c0,0.3,0,0.8,0.6,0.9c0-0.3-0.1-0.6-0.1-1
		c0,0,0.1-0.1,0.2-0.2c0.1,0.2,0.1,0.5,0.2,0.6C41.7,147.1,41.9,147,42.2,147z"/>
	<path class="st0" d="M44.9,90.7c0-0.2-0.1-0.4-0.1-0.6c0-0.4-0.1-0.8,0-1.2c0.1-0.7,0-1.3-0.8-1.6c0.1,0.1,0.2,0.2,0.3,0.3
		c0.2,0.3,0.4,0.6,0.3,1.1c-0.1,0.3,0,0.7,0,1.1c0,0.3,0.1,0.6,0.1,1C44.7,90.7,44.8,90.7,44.9,90.7z"/>
	<path class="st0" d="M43.5,96.8c0-0.1-0.1-0.1-0.1-0.2c-0.1-0.1-0.2-0.1-0.4-0.2c-0.1-0.1-0.3-0.1-0.4-0.2c0,0.1-0.2,0.3-0.1,0.4
		c0,0.1,0.2,0.2,0.4,0.3c0,0,0.1,0,0.1,0c-0.1,0.2-0.1,0.3-0.2,0.5c0.2-0.1,0.4-0.1,0.6-0.2C43.5,97.2,43.5,97,43.5,96.8z"/>
	<path class="st0" d="M38.7,156.1c0,0.1,0,0.3,0,0.5c0,0.1,0.3,0.2,0.3,0.2c0.2-0.1,0.5-0.3,0.6-0.5c0.1-0.1,0.1-0.4,0.2-0.6
		c0,0-0.1-0.1-0.1-0.1C39.5,155.8,39.2,155.9,38.7,156.1z"/>
	<path class="st0" d="M24.4,29.9c-0.2-0.8-0.4-1.7-0.7-2.5c-0.1,0-0.2,0-0.2,0.1c0.2,0.8,0.4,1.7,0.7,2.5
		C24.3,30,24.3,29.9,24.4,29.9z"/>
	<path class="st0" d="M44.3,149.1c0.6,0.2,1.5-0.4,1.6-1.1C45.4,148.4,44.9,148.7,44.3,149.1z"/>
	<path class="st0" d="M44.5,61.5c-0.6-0.5-1.1-1.2-1.2-2c-0.2,0.5-0.1,1.1,0.3,1.7C43.9,61.4,44.2,61.6,44.5,61.5
		C44.6,61.4,44.5,61.5,44.5,61.5z"/>
	<path class="st0" d="M32.1,34.7c0.7,0.6,1.6,0.6,2.4,1c0,0,0-0.1,0.1-0.1c-0.8-0.3-1.6-0.7-2.4-1C32.1,34.6,32.1,34.7,32.1,34.7z"
		/>
	<path class="st0" d="M42.3,154.2c0.1,0,0.3,0,0.4-0.1c0.3-0.1,0.6-0.1,0.4-0.6c0.4,0.1,0.8,0.1,0.7-0.4l0,0
		c-0.2,0.1-0.4,0.2-0.7,0.2c-0.2,0.1-0.4,0.2-0.6,0.3C42.5,153.9,42.4,154.1,42.3,154.2L42.3,154.2z"/>
	<path class="st0" d="M37.1,152.7c-0.2-0.1-0.4-0.2-0.6-0.4c-0.2,0.2-0.3,0.4-0.5,0.6c0.1,0.1,0.2,0.3,0.3,0.4
		c0.1,0.1,0.2,0.1,0.3,0C36.8,153.1,36.9,152.9,37.1,152.7z"/>
	<path class="st0" d="M41.5,87.8c0,0.4-0.1,0.8-0.1,1.3c0.7-0.2,0.8-0.8,0.3-1.3C41.7,87.8,41.6,87.8,41.5,87.8z"/>
	<path class="st0" d="M42,87.8c0.1,0.3,0.2,0.5,0.4,0.7c0.1,0.1,0.3,0,0.4,0c0-0.2,0-0.5-0.1-0.6c-0.1-0.2-0.4-0.2-0.6-0.3
		C42.1,87.7,42,87.8,42,87.8z"/>
	<path class="st0" d="M29,51c0.5,0.5,0.9,1,1.3,1.4C30.5,51.9,29.8,51.1,29,51z"/>
	<path class="st0" d="M38.9,152.8c-0.5,0.3-0.9,0.6-1.3,0.9C38,153.9,38.7,153.5,38.9,152.8z"/>
	<path class="st0" d="M22.7,24.8c0.2,0.7,0.4,1.4,0.7,2.1c0.1,0,0.1,0,0.2-0.1c-0.1-0.3-0.2-0.7-0.3-1c-0.1-0.4-0.3-0.7-0.4-1
		C22.8,24.8,22.8,24.8,22.7,24.8C22.7,24.8,22.7,24.8,22.7,24.8z"/>
	<path class="st0" d="M41.2,155.4c-0.1-0.2-0.2-0.3-0.3-0.5c0,0.1,0,0.1,0,0.2c-0.2,0.1-0.4,0.2-0.6,0.3c-0.1,0.1-0.1,0.2-0.2,0.3
		c0,0,0.1,0.1,0.1,0.1C40.4,155.7,40.7,155.5,41.2,155.4z"/>
	<path class="st0" d="M45.9,151.9c0.2,0,0.7,0.3,0.4-0.4c0,0,0.1-0.1,0.2-0.2c0-0.1,0.1-0.2,0-0.3c0-0.1-0.2-0.1-0.3-0.1
		c-0.1,0-0.2,0.1-0.2,0.2C46,151.4,45.9,151.7,45.9,151.9C45.9,151.9,45.9,151.9,45.9,151.9z"/>
	<path class="st0" d="M42.3,154.2c-0.3,0-0.6,0-1.1,0.1c0.2,0.3,0.3,0.4,0.4,0.6c0.1-0.1,0.3-0.2,0.4-0.3
		C42.2,154.5,42.2,154.3,42.3,154.2C42.3,154.2,42.3,154.2,42.3,154.2z"/>
	<path class="st0" d="M43.6,91.2c-0.1,0.1-0.2,0.1-0.3,0.2c0,0,0,0.1,0.1,0.1c-0.2,0-0.5,0-0.7,0c0.4,0.6,0.6,0.5,1.1-0.2
		C43.6,91.3,43.6,91.2,43.6,91.2z"/>
	<path class="st0" d="M27.8,51.8c0,0.1,0,0.2,0,0.2c0.5,0.2,0.9,0.2,1.4-0.1C28.8,51.9,28.3,51.9,27.8,51.8L27.8,51.8z"/>
	<path class="st0" d="M24.9,31.2c-0.2-0.4-0.4-0.8-0.6-1.2C24.3,30.7,24.5,31.2,24.9,31.2z"/>
	<path class="st0" d="M27.8,51.8c-0.5-0.1-0.9-0.2-1.4-0.4C26.6,51.8,27.5,52.1,27.8,51.8C27.8,51.8,27.8,51.8,27.8,51.8z"/>
	<path class="st0" d="M36.7,44.2c0.2-0.3,0.4-0.5,0.6-0.8c-0.1,0-0.1-0.1-0.2-0.1c-0.2,0.3-0.4,0.5-0.6,0.8
		C36.6,44.1,36.7,44.1,36.7,44.2z"/>
	<path class="st0" d="M24.6,63.5c0.1,0.1,0.2,0.3,0.4,0.3c0.9,0.3,1.5,1.4,1.2,2.3c-0.1,0.3-0.6,0.6-0.9,0.7c-0.2,0.1-0.5,0-1,0
		c0.7,0.3,2.3,0.2,2.9-0.2c0.1,0.6-0.1,0.8-0.9,1.2c0,0,0,0.1,0,0.1c0.2,0,0.3,0,0.5,0c0.6-0.2,0.9-0.6,0.9-1.2
		c0.2-1.9-0.4-3.6-2-4.8c-0.4-0.3-1-0.7-1.7-0.3c0.3,0.1,0.5,0.2,0.8,0.2c-0.3,0.2-0.6,0.2-0.5,0.7c0,0.3-0.1,0.7-0.4,1
		c-0.7,0.6-0.7,2-0.2,2.7c0.1,0.2,0.2,0.4,0.4,0.5c0,0,0.1,0,0.1-0.1c-0.1-0.2-0.2-0.5-0.3-0.7l0,0c-0.4-0.4-0.5-0.8-0.3-1.3
		c0-0.1,0.1-0.2,0.1-0.2C23.9,64.1,24.1,63.6,24.6,63.5c0.1-0.1,0.3-0.1,0.4-0.2c-0.2-0.1-0.3-0.2-0.5-0.3c0.2-0.6,0.9-0.7,1.3-0.3
		c0.5,0.6,1.1,1.2,1.3,2.1c0.1,0.4,0.3,0.9,0.2,1.3c-0.1,0.4-0.7,0.6-1,0.8c-0.1-0.1-0.1-0.1-0.2-0.2c0.5-0.3,0.7-0.6,0.8-1.2
		c0-0.5-0.2-1.3-0.5-1.4c0.1,0.4,0.1,0.7,0.2,1.1c-0.3-0.6-0.6-1.1-0.8-1.6C25.3,63.5,24.9,63.5,24.6,63.5z"/>
	<path class="st0" d="M19.3,65.7c0-0.2-0.1-0.5-0.1-0.7c0.3,0.3,0.6,0.6,0.8,0.9c0.1,0,0.1,0,0.2,0c0-0.8,0-1.5,0-2.3
		c-0.8,0.4,0,0.8-0.3,1.1c-0.1-0.4-0.2-0.7-0.4-1.2c-0.1,0.2-0.2,0.4-0.3,0.7c0-0.2,0-0.4,0-0.5c0,0-0.1,0-0.1-0.1
		c-0.1,0.1-0.2,0.3-0.2,0.4c0.1,0.3,0.1,0.6-0.1,0.9C18.5,65.4,18.7,65.6,19.3,65.7z"/>
	<path class="st0" d="M24,66.1c0.4,0.1,0.8,0.3,1.2,0.4c-0.1-0.1-0.3-0.2-0.4-0.3c-0.2-0.2-0.4-0.3-0.4-0.5
		c-0.1-0.4-0.3-0.9,0.1-1.2c0.2-0.1,0.6-0.1,0.8,0c0.2,0.1,0.2,0.4,0.3,0.6c0.1,0.5-0.1,0.9-0.3,1.3c0.6-0.3,0.8-0.6,0.7-1.3
		c-0.1-0.7-0.4-1.1-0.9-1.2c-0.5-0.1-1,0.3-1,0.9C23.9,65.3,24,65.7,24,66.1C24,66.1,24,66.1,24,66.1z"/>
	<path class="st0" d="M29.1,65.5c0,0.2-0.1,0.4-0.1,0.6c0.1,0.7,0.3,1.4,0.5,2.1c0.2,0.7,0.1,1.5-0.1,2.2c0,0,0,0.1,0,0.1
		c0.1,0,0.1,0.1,0.2,0.1c0-0.1,0.1-0.2,0.1-0.3c0.2-1.1,0.3-2.2,0-3.3C29.4,66.5,29.2,66,29.1,65.5C29.1,65.5,29.1,65.5,29.1,65.5z"
		/>
	<path class="st0" d="M28.1,63.4c0,0.2,0,0.3,0.1,0.5c0.2,0.5,0.3,0.9,0.5,1.4c0.1,0.1,0.3,0.2,0.4,0.3l0,0
		C28.7,64.8,28.4,64.1,28.1,63.4C28.1,63.4,28.1,63.4,28.1,63.4z"/>
	<path class="st0" d="M28.4,67.5c0.3-0.4,0.2-0.9-0.4-1.4C28.2,66.7,28.3,67.1,28.4,67.5z"/>
	<path class="st0" d="M29.3,71.2c-0.1,0.5-0.2,0.9-0.3,1.4c0,0,0.1,0,0.1,0c0.1-0.4,0.3-0.9,0.4-1.3C29.4,71.3,29.3,71.3,29.3,71.2z
		"/>
	<path class="st0" d="M67.7,161.4c0,0.3-0.1,0.7-0.1,1c0,0.2,0,0.3,0,0.5c-0.2,0-0.3-0.1-0.5-0.1c0,0,0,0,0,0.1
		c-0.2,0-0.5,0.1-0.5,0c-0.1-0.2-0.2-0.5-0.2-0.7c0-0.5,0.2-0.9,0.2-1.4c-0.4,0.5-0.5,1.1-0.4,1.7c0.2,0.8,0.7,1.1,1.5,0.8
		c0.8-0.3,1.5-0.7,1.8-1.5c0.1-0.3,0.1-0.6,0.1-0.9c0-0.1,0-0.2,0-0.2c0-0.1,0-0.2,0-0.3c0-0.3-0.8-1.4-1.2-1.5
		c-0.5-0.1-0.9,0.1-1,0.7c-0.2,0.8-0.4,1.7-0.6,2.5c0,0,0,0.1,0.1,0.3c0.2-0.7,0.4-1.3,0.5-1.9c0.2-0.6,0.6-1.1,1.2-1.3
		c0.1,0.2,0.2,0.4,0.3,0.6C68,160.2,67.6,160.8,67.7,161.4c0.2-0.3,0.4-0.7,0.6-1c0.3-0.4,0.7-0.4,1,0c-0.5,0.3-1.1,1.2-1,1.6
		c0.1-0.2,0.3-0.5,0.5-0.8c0,0.4,0.1,0.8,0,1c-0.1,0.2-0.5,0.3-0.8,0.4C67.6,162.3,67.7,161.9,67.7,161.4z"/>
	<path class="st0" d="M64.6,162.8c0,0.1,0,0.3,0,0.3c0.5,0.2,0.9,0.4,1.4,0.5c0.2,0,0.4-0.1,0.6-0.2c-0.7-0.2-1-0.8-0.8-1.7
		c0.1-0.8,0.4-1.4,0.7-2.1l0,0c-0.1,0.1-0.4,0.2-0.4,0.3c-0.4,0.7-0.5,1.4-0.5,2.2c0,0.2,0,0.4,0,0.6c-0.4-0.7-0.4-1.5,0-2.2
		c0.5-0.9,1.1-1.8,1.8-2.6c0.3-0.3,0.9-0.2,1.4-0.4c-0.2-0.2-0.5-0.3-0.7-0.5c-0.1,0.1-0.3,0.3-0.5,0.5l0,0
		c-1.5,0.7-2.7,2.9-2.4,4.6C64.9,162.4,65,162.8,64.6,162.8L64.6,162.8z"/>
	<path class="st0" d="M67.3,157.6L67.3,157.6c-0.1-0.2-0.2-0.5-0.3-0.5c-0.4-0.1-0.7-0.5-1.1-0.1c-0.1,0.1-0.2,0.1-0.3,0.2
		c0-0.2,0-0.3,0.1-0.5c-0.8,0.6-1.2,1.5-1.6,2.4c-0.2,0.6-0.3,1.2-0.5,1.8c-0.3,0.7,0.1,1.9,0.7,2.4c0.1-0.1,0.2-0.3,0.3-0.4l0,0
		c-0.2-0.3-0.5-0.6-0.6-0.9c-0.4-1.2,0.3-2.3,0.7-3.3c0.1-0.3,0.4-0.6,0.6-0.8C66.3,157,66.6,157,67.3,157.6z"/>
	<path class="st0" d="M66.4,159.7c0.4-0.4,0.7-0.8,1.1-1.1c0.6-0.5,0.7-0.4,1.3,0.2c0-0.1,0-0.3,0-0.4c0-0.1,0-0.3,0-0.5
		c-0.1,0.1-0.2,0.2-0.2,0.3c-0.5-0.5-1-0.1-1.3,0.2C66.7,158.7,66.3,159,66.4,159.7L66.4,159.7z"/>
	<path class="st0" d="M66.3,156.1c0.5,0,0.9,0.1,1.5,0.7C67.5,156,67,155.8,66.3,156.1z"/>
	<path class="st0" d="M68.5,163.9c0.1,0,0.3,0.1,0.4,0c0.2-0.3,0.7-0.4,0.6-0.7c-0.2,0.3-0.4,0.6-0.7,0.9
		C68.7,164,68.6,163.9,68.5,163.9z"/>
	<path class="st0" d="M58,54.5c-0.9-0.4-1.9-0.7-2.8-1.1C55.3,53.9,57.1,54.6,58,54.5z"/>
	<path class="st0" d="M62.2,49.4c-0.2,0.8-0.3,1.4-0.5,2.1C62.2,51.2,62.4,50.2,62.2,49.4z"/>
	<path class="st0" d="M56.6,41.8c-0.5,0-0.9-0.1-1.4-0.1c0,0.1,0,0.1,0,0.2c0.5,0,0.9,0.1,1.4,0.1C56.6,41.9,56.6,41.8,56.6,41.8z"
		/>
	<path class="st0" d="M52.4,180.3c0.3-1.1-0.3-2.3-1.4-2.9c0,0,0-0.1,0-0.1c0.2,0,0.5,0,0.6,0.1c0.4,0.3,0.8,0.7,1.1,1
		c0.1,0.1,0.2,0.3,0.4,0.4c-0.2-1.2-2.1-2.6-3.5-2.4c0.2,0.1,0.4,0.2,0.6,0.3c0.1,0.4,0.1,0.8-0.2,1.2c-0.4,0.6-0.1,1.2,0.2,1.7
		c0.5,1,1.5,1.4,2.5,1c0.3,0.1,0.6,0.2,0.9,0.3c0-0.1,0.1-0.1,0.1-0.2c0,0.1,0,0.2,0.1,0.4c0.1-0.1,0.1-0.2,0.1-0.3
		c-0.1-0.4,0.4-1-0.3-1.2c0-0.3,0-0.5-0.1-0.7c0,0-0.1,0-0.2,0C53.2,179.6,53.1,180.1,52.4,180.3z M51.1,180.3
		c0.3-0.2,0.7-0.4,0.8-0.6c0.1-0.4,0-0.9-0.2-1.2c-0.4-0.6-1-0.4-1.6,0c0-0.2,0-0.4,0.1-0.5c0.3-0.4,1-0.4,1.3-0.1
		c0.7,0.5,0.8,1.6,0.7,2.3c0,0.1-0.2,0.3-0.3,0.3C51.6,180.5,51.3,180.3,51.1,180.3z M51.7,179.3c0,0.1-0.1,0.3-0.3,0.3
		c-0.3,0.1-0.9-0.6-0.9-0.9c0-0.1,0.2-0.3,0.4-0.4C51.3,178.3,51.7,178.7,51.7,179.3z"/>
	<path class="st0" d="M48.3,175.2c-0.1-0.2-0.2-0.4-0.3-0.7c-0.3,0.1-0.6,0.2-1,0.3c0,0.1,0,0.1,0,0.2c0.3,0.2,0.7,0.4,1,0.6
		C48.1,175.4,48.2,175.3,48.3,175.2z"/>
	<path class="st0" d="M53.6,184.1c-0.3,0.3-0.4,0.6-0.6,0.9c0.3,0.3,0.4,0.3,0.6-0.2c0-0.1,0.2-0.1,0.3-0.1c0.3-0.1,0.6-0.1,0.5-0.6
		C54,184.1,53.8,184.1,53.6,184.1z"/>
	<path class="st0" d="M52.5,184.6c-0.2,0.1-0.3,0.1-0.5,0.2c-0.1,0-0.2,0.1-0.3,0.2c0.1,0.1,0.1,0.2,0.2,0.3c0.1,0,0.3,0,0.3,0
		c0.1-0.1,0.3-0.3,0.4-0.4C52.6,184.7,52.6,184.6,52.5,184.6z"/>
	<path class="st0" d="M45.2,178.4c0.4-0.2,0.3,0.7,0.8,0.3C45.4,178.1,45.4,178.1,45.2,178.4z"/>
	<path class="st0" d="M54.3,158c0.5-0.1,1,0,1.3-0.6c0.1-0.1,0.1-0.3,0.1-0.4c-0.2,0-0.4-0.1-0.6-0.1c0-0.1,0-0.1,0-0.2
		c0.2,0,0.5,0,0.7,0c0-0.6-0.6-1.2-1.3-1.2c-0.5,0-1,0.3-1,1.1c0,0.4-0.2,1,0.2,1.3C54,158,54.2,158,54.3,158c0,0-0.1,0-0.1,0
		c-0.4-0.3-0.5-1.8,0-2.1c0.1-0.1,0.3-0.1,0.4-0.1c-0.1,0.3-0.3,0.6-0.3,0.9C54.2,157.1,54.3,157.6,54.3,158z M54.8,157.6
		c-0.6-0.3-0.7-0.7-0.2-1.4C54.7,156.7,54.8,157.1,54.8,157.6z"/>
	<path class="st0" d="M57.6,160.9c-0.7-1.3-0.9-2.7-0.9-4.1C56.4,158.3,56.7,159.7,57.6,160.9z"/>
	<path class="st0" d="M58.3,156.4c0.1,0.6,0.7,0.7,1,1.1c0.2,0.3,0.5,0.6,0.7,0.9c0.1,0.1,0,0.3,0,0.5c0.1,0,0.1,0,0.2,0
		c0-0.2,0.1-0.4,0.1-0.6C60.1,157.5,59.1,156.6,58.3,156.4L58.3,156.4z"/>
	<path class="st0" d="M58.6,161.1c-0.7,0.4-1.1,1-1,1.8c0.1,0.4,0.1,0.8,0.8,1C57.5,162.9,58,162,58.6,161.1z"/>
	<path class="st0" d="M58.3,156.4c0-0.1,0.1-0.3,0-0.4c-0.5-0.6-2-0.9-2.6-0.6C56.6,155.7,57.4,156.1,58.3,156.4
		C58.3,156.4,58.3,156.4,58.3,156.4z"/>
	<path class="st0" d="M60.6,167.3c-0.3-1.3-1.6-2.4-2.1-1.9C59.5,165.6,59.9,166.5,60.6,167.3z"/>
	<path class="st0" d="M60.3,162.5c-0.7,0.3-1,0.2-1.4-0.6c-0.2,0.4,0,0.7,0.2,0.9c0.3,0.3,0.7,0.3,1.1,0.1c0.1-0.1,0.1-0.2,0.2-0.4
		C60.4,162.5,60.4,162.5,60.3,162.5z"/>
	<path class="st0" d="M60.8,162.7c-0.2,0.4-0.4,0.8-0.6,1.2C60.9,163.9,61.1,163.4,60.8,162.7z"/>
	<path class="st0" d="M59.3,166.9c-0.3-0.5-0.6-0.9-0.8-1.3C58.3,165.9,58.6,166.5,59.3,166.9z"/>
	<path class="st0" d="M79,160.2c0.7,1.1,3,1.2,3.9,0.1C81.6,161.1,80.3,160.8,79,160.2z"/>
	<path class="st0" d="M80.2,151.1c-0.7-0.7-2.7-1.2-3.2-0.7C78.1,150.6,79.2,150.8,80.2,151.1z"/>
	<path class="st0" d="M76.2,150.4c-0.9,0.4-1.6,1-1.7,2.1C75,151.8,75.6,151.2,76.2,150.4z"/>
	<path class="st0" d="M82.2,152.8c0.5,0.8,1,1.5,1.5,2.3C83.7,154.5,82.9,153.1,82.2,152.8z"/>
	<path class="st0" d="M74.7,155.6c-0.1-1-0.2-1.9-0.3-2.8C74.1,153.1,74.3,155,74.7,155.6z"/>
	<path class="st0" d="M46.1,60.2c-1.2-0.7-0.6-1.7-0.6-2.6C44.8,58.3,44.8,59.8,46.1,60.2z"/>
</g>
</svg>
